<svg width="425" height="75" viewBox="0 0 425 75" fill="none" xmlns="http://www.w3.org/2000/svg">
<g style="mix-blend-mode:difference">
<path d="M3.75977 72.9492V2.00195H0.537109C0.179036 1.77409 0 1.5625 0 1.36719C0 1.20443 0.179036 1.00911 0.537109 0.78125H14.9414C19.3685 0.78125 22.9818 2.3112 25.7812 5.37109C28.6133 8.43099 30.0293 12.7279 30.0293 18.2617C30.0293 21.6471 29.541 24.5768 28.5645 27.0508C27.6204 29.4922 26.1393 31.543 24.1211 33.2031C22.8516 34.2448 20.931 35.2376 18.3594 36.1816C21.0286 37.1582 22.998 38.151 24.2676 39.1602C26.2858 40.8203 27.8158 42.8385 28.8574 45.2148C29.8991 47.5586 30.4199 50.4557 30.4199 53.9062C30.4199 58.3659 29.6549 62.321 28.125 65.7715C27.0833 68.1803 25.3743 70.1986 22.998 71.8262C20.6217 73.4212 17.7734 74.2188 14.4531 74.2188H0.537109C0.179036 73.9909 0 73.7793 0 73.584C0 73.3887 0.179036 73.1771 0.537109 72.9492H3.75977ZM13.8184 2.00195V35.5957H16.4062C17.5781 35.5957 18.4408 35.3027 18.9941 34.7168C19.5801 34.1309 19.873 33.1543 19.873 31.7871V6.29883C19.873 4.63867 19.5801 3.51562 18.9941 2.92969C18.4082 2.3112 17.2689 2.00195 15.5762 2.00195H13.8184ZM13.8184 36.8652V72.9492H15.3809C16.748 72.9492 17.8385 72.5586 18.6523 71.7773C19.4661 70.9961 19.873 69.9382 19.873 68.6035V40.2344C19.873 39.0299 19.6289 38.1673 19.1406 37.6465C18.6849 37.1257 17.9525 36.8652 16.9434 36.8652H13.8184ZM38.6211 2.00195H35.4961C35.1706 1.77409 35.0078 1.57878 35.0078 1.41602C35.0078 1.18815 35.1706 0.976562 35.4961 0.78125H63.2305V27.9785C63.0352 28.304 62.8398 28.4668 62.6445 28.4668C62.4492 28.4668 62.3027 28.418 62.2051 28.3203C62.14 28.1901 62.0911 27.7181 62.0586 26.9043C61.8307 21.5007 60.9844 16.4714 59.5195 11.8164C58.0547 7.16146 56.6387 4.21549 55.2715 2.97852C54.5553 2.32747 53.3509 2.00195 51.6582 2.00195H48.6309V36.377C50.4863 36.1816 52 35.2051 53.1719 33.4473C54.7344 31.071 55.5156 27.4251 55.5156 22.5098V18.7012C55.5156 18.5384 55.5645 18.4082 55.6621 18.3105C55.7923 18.1803 55.9388 18.1152 56.1016 18.1152C56.2643 18.1152 56.3945 18.1803 56.4922 18.3105C56.5898 18.4082 56.6387 18.5384 56.6387 18.7012V54.9805C56.6387 55.1432 56.5898 55.2897 56.4922 55.4199C56.3945 55.5176 56.2643 55.5664 56.1016 55.5664C55.9388 55.5664 55.7923 55.5176 55.6621 55.4199C55.5645 55.2897 55.5156 55.1432 55.5156 54.9805V51.4648C55.5156 46.6471 54.6367 42.8223 52.8789 39.9902C51.8372 38.3626 50.7467 37.5488 49.6074 37.5488C49.3145 37.5488 49.0866 37.6465 48.9238 37.8418C48.7285 38.0697 48.6309 38.4277 48.6309 38.916V72.9492H50.1934C51.528 72.9492 52.8464 72.4609 54.1484 71.4844C55.4505 70.4753 56.6712 68.75 57.8105 66.3086C58.9499 63.8346 59.8288 61.1491 60.4473 58.252C61.4564 53.5645 61.9609 49.9023 61.9609 47.2656V44.043C62.1888 43.6849 62.4004 43.5059 62.5957 43.5059C62.791 43.5059 62.9375 43.5547 63.0352 43.6523C63.1654 43.75 63.2305 43.8802 63.2305 44.043V74.2188H35.4961C35.2682 74.2188 35.0892 74.1536 34.959 74.0234C34.8288 73.8932 34.7637 73.7467 34.7637 73.584C34.7637 73.3887 34.8288 73.2422 34.959 73.1445C35.0892 73.0143 35.2682 72.9492 35.4961 72.9492H38.6211V2.00195ZM70.8945 2.00195H67.8672C67.5091 1.77409 67.3301 1.57878 67.3301 1.41602C67.3301 1.2207 67.5091 1.00911 67.8672 0.78125H84.127C84.2897 0.78125 84.4199 0.846354 84.5176 0.976562C84.6478 1.07422 84.7129 1.20443 84.7129 1.36719C84.7129 1.5625 84.6478 1.72526 84.5176 1.85547C84.4199 1.95312 84.2897 2.00195 84.127 2.00195H80.9043V72.9492H82.9551C84.4199 72.9492 85.7057 72.5423 86.8125 71.7285C87.9193 70.8822 88.9935 69.1569 90.0352 66.5527C91.5651 62.7116 92.6719 58.5286 93.3555 54.0039C94.0716 49.4466 94.446 46.5332 94.4785 45.2637C94.5111 44.8079 94.5762 44.515 94.6738 44.3848L95.0645 44.2383L95.4551 44.3848C95.5853 44.515 95.6504 44.6615 95.6504 44.8242L95.2598 74.2188H67.8672C67.7044 74.2188 67.5579 74.1699 67.4277 74.0723C67.3301 73.9421 67.2812 73.7793 67.2812 73.584C67.2812 73.3887 67.3301 73.2422 67.4277 73.1445C67.5579 73.0143 67.7044 72.9492 67.8672 72.9492H70.8945V2.00195ZM128.656 29.1992V47.2168C128.656 57.6009 127.012 65.1855 123.725 69.9707C121.446 73.291 118.598 74.9512 115.18 74.9512C112.868 74.9512 110.736 74.1211 108.783 72.4609C106.83 70.8008 105.3 68.3594 104.193 65.1367C102.403 59.9609 101.508 54.2155 101.508 47.9004V26.8066C101.508 16.9759 103.152 9.68424 106.439 4.93164C108.718 1.64388 111.534 0 114.887 0C116.514 0 118.012 0.374349 119.379 1.12305C120.746 1.83919 121.967 2.91341 123.041 4.3457C124.115 5.74544 125.076 7.61719 125.922 9.96094C126.801 12.2721 127.419 14.681 127.777 17.1875C128.363 21.4518 128.656 25.4557 128.656 29.1992ZM111.811 66.9434C111.811 69.4824 112.201 71.3216 112.982 72.4609C113.568 73.2747 114.285 73.6816 115.131 73.6816C115.945 73.6816 116.661 73.3236 117.279 72.6074C117.898 71.8587 118.207 70.8008 118.207 69.4336V6.83594C118.207 5.07812 117.8 3.67839 116.986 2.63672C116.433 1.88802 115.733 1.51367 114.887 1.51367C114.138 1.51367 113.487 1.87174 112.934 2.58789C112.185 3.56445 111.811 4.98047 111.811 6.83594V66.9434ZM135.979 2.05078H133.488C133.326 2.05078 133.179 2.00195 133.049 1.9043C132.951 1.77409 132.902 1.61133 132.902 1.41602C132.902 1.2207 132.951 1.07422 133.049 0.976562C133.179 0.846354 133.326 0.78125 133.488 0.78125H149.064C149.227 0.78125 149.357 0.846354 149.455 0.976562C149.585 1.07422 149.65 1.2207 149.65 1.41602C149.65 1.61133 149.602 1.77409 149.504 1.9043C149.406 2.00195 149.26 2.05078 149.064 2.05078H146.086L150.334 56.1035L156.096 6.98242C156.161 6.52669 156.193 6.07096 156.193 5.61523C156.193 4.54102 156.047 3.72721 155.754 3.17383C155.461 2.62044 155.038 2.27865 154.484 2.14844L152.922 2.00195C152.727 1.87174 152.629 1.67643 152.629 1.41602C152.629 1.2207 152.808 1.00911 153.166 0.78125H160.539C160.702 0.78125 160.832 0.830078 160.93 0.927734C161.027 1.02539 161.076 1.1556 161.076 1.31836C161.076 1.48112 161.027 1.61133 160.93 1.70898C160.865 1.80664 160.734 1.87174 160.539 1.9043C159.758 2.00195 159.156 2.34375 158.732 2.92969C158.049 3.9388 157.577 5.61523 157.316 7.95898L149.943 69.7266C149.65 72.2656 149.439 73.6491 149.309 73.877C149.178 74.1048 148.934 74.2188 148.576 74.2188H143.889C143.628 74.2188 143.433 74.0885 143.303 73.8281C143.173 73.5677 142.928 71.696 142.57 68.2129L135.979 2.05078ZM167.422 2.00195H164.297C163.971 1.77409 163.809 1.57878 163.809 1.41602C163.809 1.18815 163.971 0.976562 164.297 0.78125H192.031V27.9785C191.836 28.304 191.641 28.4668 191.445 28.4668C191.25 28.4668 191.104 28.418 191.006 28.3203C190.941 28.1901 190.892 27.7181 190.859 26.9043C190.632 21.5007 189.785 16.4714 188.32 11.8164C186.855 7.16146 185.439 4.21549 184.072 2.97852C183.356 2.32747 182.152 2.00195 180.459 2.00195H177.432V36.377C179.287 36.1816 180.801 35.2051 181.973 33.4473C183.535 31.071 184.316 27.4251 184.316 22.5098V18.7012C184.316 18.5384 184.365 18.4082 184.463 18.3105C184.593 18.1803 184.74 18.1152 184.902 18.1152C185.065 18.1152 185.195 18.1803 185.293 18.3105C185.391 18.4082 185.439 18.5384 185.439 18.7012V54.9805C185.439 55.1432 185.391 55.2897 185.293 55.4199C185.195 55.5176 185.065 55.5664 184.902 55.5664C184.74 55.5664 184.593 55.5176 184.463 55.4199C184.365 55.2897 184.316 55.1432 184.316 54.9805V51.4648C184.316 46.6471 183.438 42.8223 181.68 39.9902C180.638 38.3626 179.548 37.5488 178.408 37.5488C178.115 37.5488 177.887 37.6465 177.725 37.8418C177.529 38.0697 177.432 38.4277 177.432 38.916V72.9492H178.994C180.329 72.9492 181.647 72.4609 182.949 71.4844C184.251 70.4753 185.472 68.75 186.611 66.3086C187.751 63.8346 188.63 61.1491 189.248 58.252C190.257 53.5645 190.762 49.9023 190.762 47.2656V44.043C190.99 43.6849 191.201 43.5059 191.396 43.5059C191.592 43.5059 191.738 43.5547 191.836 43.6523C191.966 43.75 192.031 43.8802 192.031 44.043V74.2188H164.297C164.069 74.2188 163.89 74.1536 163.76 74.0234C163.63 73.8932 163.564 73.7467 163.564 73.584C163.564 73.3887 163.63 73.2422 163.76 73.1445C163.89 73.0143 164.069 72.9492 164.297 72.9492H167.422V2.00195ZM199.549 72.9004V2.00195H196.473C196.245 2.00195 196.066 1.95312 195.936 1.85547C195.838 1.72526 195.789 1.5625 195.789 1.36719C195.789 1.20443 195.838 1.07422 195.936 0.976562C196.066 0.846354 196.245 0.78125 196.473 0.78125H209.119C212.993 0.78125 216.15 1.66016 218.592 3.41797C221.033 5.17578 222.824 7.99154 223.963 11.8652C225.46 17.041 226.209 22.5586 226.209 28.418V46.5332C226.209 52.6204 225.477 58.1217 224.012 63.0371C223.165 65.804 222.091 67.9688 220.789 69.5312C219.487 71.0612 217.908 72.2331 216.053 73.0469C214.197 73.8281 211.886 74.2188 209.119 74.2188H196.473C196.245 74.2188 196.066 74.1699 195.936 74.0723C195.838 73.9421 195.789 73.7793 195.789 73.584C195.789 73.3561 195.838 73.1934 195.936 73.0957C196.066 72.9655 196.245 72.9004 196.473 72.9004H199.549ZM209.656 72.9004H210.779C212.765 72.9004 214.067 72.5586 214.686 71.875C215.304 71.1589 215.613 69.3522 215.613 66.4551V7.42188C215.613 5.30599 215.304 3.8737 214.686 3.125C214.1 2.3763 213.188 2.00195 211.951 2.00195H209.656V72.9004ZM250.131 72.9492V2.00195H246.908C246.55 1.77409 246.371 1.5625 246.371 1.36719C246.371 1.20443 246.55 1.00911 246.908 0.78125H261.312C265.74 0.78125 269.353 2.3112 272.152 5.37109C274.984 8.43099 276.4 12.7279 276.4 18.2617C276.4 21.6471 275.912 24.5768 274.936 27.0508C273.992 29.4922 272.51 31.543 270.492 33.2031C269.223 34.2448 267.302 35.2376 264.73 36.1816C267.4 37.1582 269.369 38.151 270.639 39.1602C272.657 40.8203 274.187 42.8385 275.229 45.2148C276.27 47.5586 276.791 50.4557 276.791 53.9062C276.791 58.3659 276.026 62.321 274.496 65.7715C273.454 68.1803 271.745 70.1986 269.369 71.8262C266.993 73.4212 264.145 74.2188 260.824 74.2188H246.908C246.55 73.9909 246.371 73.7793 246.371 73.584C246.371 73.3887 246.55 73.1771 246.908 72.9492H250.131ZM260.189 2.00195V35.5957H262.777C263.949 35.5957 264.812 35.3027 265.365 34.7168C265.951 34.1309 266.244 33.1543 266.244 31.7871V6.29883C266.244 4.63867 265.951 3.51562 265.365 2.92969C264.779 2.3112 263.64 2.00195 261.947 2.00195H260.189ZM260.189 36.8652V72.9492H261.752C263.119 72.9492 264.21 72.5586 265.023 71.7773C265.837 70.9961 266.244 69.9382 266.244 68.6035V40.2344C266.244 39.0299 266 38.1673 265.512 37.6465C265.056 37.1257 264.324 36.8652 263.314 36.8652H260.189ZM291.438 37.793L283.43 2.05078H281.477C281.314 2.05078 281.184 2.00195 281.086 1.9043C280.988 1.77409 280.939 1.61133 280.939 1.41602C280.939 1.18815 280.988 1.02539 281.086 0.927734C281.184 0.830078 281.314 0.78125 281.477 0.78125H297.346C297.704 1.00911 297.883 1.20443 297.883 1.36719C297.883 1.59505 297.704 1.82292 297.346 2.05078H293.439L301.008 35.4004L306.672 9.42383C306.9 8.44727 307.014 7.53581 307.014 6.68945C307.014 5.45247 306.818 4.45964 306.428 3.71094C306.037 2.92969 305.5 2.40885 304.816 2.14844L303.205 1.95312C303.01 1.85547 302.912 1.67643 302.912 1.41602C302.912 1.18815 303.091 0.976562 303.449 0.78125H311.359C311.717 0.78125 311.962 0.813802 312.092 0.878906L312.238 1.12305C312.238 1.35091 312.043 1.59505 311.652 1.85547C310.025 2.79948 308.902 4.67122 308.283 7.4707L301.545 37.793V72.9492H305.402C305.565 72.9492 305.695 73.0143 305.793 73.1445C305.923 73.2422 305.988 73.3887 305.988 73.584C305.988 73.7793 305.923 73.9421 305.793 74.0723C305.695 74.1699 305.565 74.2188 305.402 74.2188H287.385C287.222 74.2188 287.092 74.1699 286.994 74.0723C286.896 73.9421 286.848 73.7793 286.848 73.584C286.848 73.3887 286.896 73.2422 286.994 73.1445C287.092 73.0143 287.222 72.9492 287.385 72.9492H291.438V37.793ZM343.924 1.80664H349.344L358.035 72.9492H360.232C360.59 73.1771 360.77 73.3887 360.77 73.584C360.77 73.7793 360.59 73.9909 360.232 74.2188H345.535C345.372 74.2188 345.242 74.1699 345.145 74.0723C345.047 73.9421 344.998 73.7793 344.998 73.584C344.998 73.3887 345.047 73.2422 345.145 73.1445C345.242 73.0143 345.372 72.9492 345.535 72.9492H347.879L346.609 59.082H337.771L336.697 66.9434C336.665 67.3665 336.648 67.806 336.648 68.2617C336.648 69.694 336.909 70.7845 337.43 71.5332C337.983 72.2493 338.732 72.6888 339.676 72.8516L340.457 73.0957C340.587 73.2259 340.652 73.3887 340.652 73.584C340.652 73.7793 340.587 73.9421 340.457 74.0723C340.359 74.1699 340.229 74.2188 340.066 74.2188H331.717C331.554 74.2188 331.408 74.1699 331.277 74.0723C331.18 73.9421 331.131 73.7793 331.131 73.584C331.131 73.3887 331.18 73.2259 331.277 73.0957L331.863 72.9004C332.807 72.7702 333.54 72.347 334.061 71.6309C334.842 70.4915 335.395 68.6035 335.721 65.9668L343.924 1.80664ZM342.703 20.0195L337.918 57.8125H346.463L342.703 20.0195ZM367.652 2.00195H364.625C364.267 1.77409 364.088 1.57878 364.088 1.41602C364.088 1.2207 364.267 1.00911 364.625 0.78125H380.885C381.048 0.78125 381.178 0.846354 381.275 0.976562C381.406 1.07422 381.471 1.20443 381.471 1.36719C381.471 1.5625 381.406 1.72526 381.275 1.85547C381.178 1.95312 381.048 2.00195 380.885 2.00195H377.662V72.9492H379.713C381.178 72.9492 382.464 72.5423 383.57 71.7285C384.677 70.8822 385.751 69.1569 386.793 66.5527C388.323 62.7116 389.43 58.5286 390.113 54.0039C390.829 49.4466 391.204 46.5332 391.236 45.2637C391.269 44.8079 391.334 44.515 391.432 44.3848L391.822 44.2383L392.213 44.3848C392.343 44.515 392.408 44.6615 392.408 44.8242L392.018 74.2188H364.625C364.462 74.2188 364.316 74.1699 364.186 74.0723C364.088 73.9421 364.039 73.7793 364.039 73.584C364.039 73.3887 364.088 73.2422 364.186 73.1445C364.316 73.0143 364.462 72.9492 364.625 72.9492H367.652V2.00195ZM400.121 2.00195H397.094C396.736 1.77409 396.557 1.57878 396.557 1.41602C396.557 1.2207 396.736 1.00911 397.094 0.78125H413.354C413.516 0.78125 413.646 0.846354 413.744 0.976562C413.874 1.07422 413.939 1.20443 413.939 1.36719C413.939 1.5625 413.874 1.72526 413.744 1.85547C413.646 1.95312 413.516 2.00195 413.354 2.00195H410.131V72.9492H412.182C413.646 72.9492 414.932 72.5423 416.039 71.7285C417.146 70.8822 418.22 69.1569 419.262 66.5527C420.792 62.7116 421.898 58.5286 422.582 54.0039C423.298 49.4466 423.673 46.5332 423.705 45.2637C423.738 44.8079 423.803 44.515 423.9 44.3848L424.291 44.2383L424.682 44.3848C424.812 44.515 424.877 44.6615 424.877 44.8242L424.486 74.2188H397.094C396.931 74.2188 396.785 74.1699 396.654 74.0723C396.557 73.9421 396.508 73.7793 396.508 73.584C396.508 73.3887 396.557 73.2422 396.654 73.1445C396.785 73.0143 396.931 72.9492 397.094 72.9492H400.121V2.00195Z" fill="white"/>
</g>
</svg>
