<svg width="243" height="113" viewBox="0 0 243 113" fill="none" xmlns="http://www.w3.org/2000/svg">
<g style="mix-blend-mode:difference">
<path d="M5.63965 109.424V3.00293H0.805664C0.268555 2.66113 0 2.34375 0 2.05078C0 1.80664 0.268555 1.51367 0.805664 1.17188H22.4121C29.0527 1.17188 34.4727 3.4668 38.6719 8.05664C42.9199 12.6465 45.0439 19.0918 45.0439 27.3926C45.0439 32.4707 44.3115 36.8652 42.8467 40.5762C41.4307 44.2383 39.209 47.3145 36.1816 49.8047C34.2773 51.3672 31.3965 52.8564 27.5391 54.2725C31.543 55.7373 34.4971 57.2266 36.4014 58.7402C39.4287 61.2305 41.7236 64.2578 43.2861 67.8223C44.8486 71.3379 45.6299 75.6836 45.6299 80.8594C45.6299 87.5488 44.4824 93.4814 42.1875 98.6572C40.625 102.271 38.0615 105.298 34.4971 107.739C30.9326 110.132 26.6602 111.328 21.6797 111.328H0.805664C0.268555 110.986 0 110.669 0 110.376C0 110.083 0.268555 109.766 0.805664 109.424H5.63965ZM20.7275 3.00293V53.3936H24.6094C26.3672 53.3936 27.6611 52.9541 28.4912 52.0752C29.3701 51.1963 29.8096 49.7314 29.8096 47.6807V9.44824C29.8096 6.95801 29.3701 5.27344 28.4912 4.39453C27.6123 3.4668 25.9033 3.00293 23.3643 3.00293H20.7275ZM20.7275 55.2979V109.424H23.0713C25.1221 109.424 26.7578 108.838 27.9785 107.666C29.1992 106.494 29.8096 104.907 29.8096 102.905V60.3516C29.8096 58.5449 29.4434 57.251 28.7109 56.4697C28.0273 55.6885 26.9287 55.2979 25.415 55.2979H20.7275ZM57.6387 3.00293H53.0977C52.5605 2.66113 52.292 2.36816 52.292 2.12402C52.292 1.83105 52.5605 1.51367 53.0977 1.17188H77.4873C77.7314 1.17188 77.9268 1.26953 78.0732 1.46484C78.2686 1.61133 78.3662 1.80664 78.3662 2.05078C78.3662 2.34375 78.2686 2.58789 78.0732 2.7832C77.9268 2.92969 77.7314 3.00293 77.4873 3.00293H72.6533V109.424H75.7295C77.9268 109.424 79.8555 108.813 81.5156 107.593C83.1758 106.323 84.7871 103.735 86.3496 99.8291C88.6445 94.0674 90.3047 87.793 91.3301 81.0059C92.4043 74.1699 92.9658 69.7998 93.0146 67.8955C93.0635 67.2119 93.1611 66.7725 93.3076 66.5771L93.8936 66.3574L94.4795 66.5771C94.6748 66.7725 94.7725 66.9922 94.7725 67.2363L94.1865 111.328H53.0977C52.8535 111.328 52.6338 111.255 52.4385 111.108C52.292 110.913 52.2188 110.669 52.2188 110.376C52.2188 110.083 52.292 109.863 52.4385 109.717C52.6338 109.521 52.8535 109.424 53.0977 109.424H57.6387V3.00293ZM144.281 43.7988V70.8252C144.281 86.4014 141.815 97.7783 136.884 104.956C133.466 109.937 129.193 112.427 124.066 112.427C120.6 112.427 117.401 111.182 114.472 108.691C111.542 106.201 109.247 102.539 107.587 97.7051C104.901 89.9414 103.559 81.3232 103.559 71.8506V40.21C103.559 25.4639 106.024 14.5264 110.956 7.39746C114.374 2.46582 118.598 0 123.627 0C126.068 0 128.314 0.561523 130.365 1.68457C132.416 2.75879 134.247 4.37012 135.858 6.51855C137.47 8.61816 138.91 11.4258 140.18 14.9414C141.498 18.4082 142.426 22.0215 142.963 25.7812C143.842 32.1777 144.281 38.1836 144.281 43.7988ZM119.013 100.415C119.013 104.224 119.599 106.982 120.771 108.691C121.649 109.912 122.724 110.522 123.993 110.522C125.214 110.522 126.288 109.985 127.216 108.911C128.144 107.788 128.607 106.201 128.607 104.15V10.2539C128.607 7.61719 127.997 5.51758 126.776 3.95508C125.946 2.83203 124.896 2.27051 123.627 2.27051C122.504 2.27051 121.527 2.80762 120.697 3.88184C119.574 5.34668 119.013 7.4707 119.013 10.2539V100.415ZM183.097 8.20312L187.931 1.3916C188.321 0.805664 188.712 0.512695 189.103 0.512695C189.249 0.512695 189.371 0.561523 189.469 0.65918C189.566 0.756836 189.615 0.927734 189.615 1.17188V44.8975C189.615 45.1416 189.518 45.3369 189.322 45.4834C189.176 45.6299 188.98 45.7031 188.736 45.7031C188.395 45.7031 188.175 45.6055 188.077 45.4102C187.979 45.2637 187.833 43.9697 187.638 41.5283C185.978 23.8037 183.487 12.1826 180.167 6.66504C178.263 3.58887 176.017 2.05078 173.429 2.05078C172.013 2.05078 170.816 2.68555 169.84 3.95508C168.863 5.22461 168.375 7.49512 168.375 10.7666V105.469C168.375 107.031 168.814 108.276 169.693 109.204C170.572 110.083 171.671 110.522 172.989 110.522C174.405 110.522 175.528 110.01 176.358 108.984C177.481 107.52 178.043 105.542 178.043 103.052V62.1826H174.234C173.99 62.1826 173.771 62.1094 173.575 61.9629C173.429 61.7676 173.355 61.5479 173.355 61.3037C173.355 61.0107 173.429 60.791 173.575 60.6445C173.771 60.4492 173.99 60.3516 174.234 60.3516H195.548C195.792 60.3516 195.987 60.4492 196.134 60.6445C196.28 60.791 196.354 61.0107 196.354 61.3037C196.354 61.5479 196.28 61.7676 196.134 61.9629C195.987 62.1094 195.792 62.1826 195.548 62.1826H192.252V111.328C192.252 111.719 192.179 112.012 192.032 112.207C191.935 112.354 191.788 112.427 191.593 112.427C191.397 112.427 191.202 112.354 191.007 112.207C190.86 112.061 190.689 111.768 190.494 111.328L186.319 101.001C183.487 105.835 181.144 108.96 179.288 110.376C177.481 111.743 175.382 112.427 172.989 112.427C166.349 112.427 161.319 108.691 157.901 101.221C154.483 93.75 152.774 83.6426 152.774 70.8984V43.6523C152.774 30.6152 154.605 20.0928 158.268 12.085C161.93 4.02832 166.69 0 172.55 0C176.798 0 180.313 2.73437 183.097 8.20312ZM212.244 104.956C210.584 106.128 208.875 107.593 207.117 109.351C205.408 111.06 204.358 111.914 203.968 111.914C203.821 111.914 203.699 111.841 203.602 111.694C203.504 111.548 203.455 111.23 203.455 110.742V64.7461C203.455 64.5508 203.504 64.4043 203.602 64.3066C203.748 64.1602 203.895 64.0869 204.041 64.0869C204.285 64.0869 204.505 64.2334 204.7 64.5264C205.042 64.9658 205.213 65.4541 205.213 65.9912V69.1406C205.213 75.2441 206.165 82.2021 208.069 90.0146C209.974 97.8271 212.464 103.394 215.54 106.714C217.054 108.374 218.812 109.204 220.813 109.204C223.108 109.204 225.11 108.13 226.819 105.981C228.528 103.784 229.383 100.488 229.383 96.0938C229.383 91.8945 228.602 87.4512 227.039 82.7637C224.988 76.5137 220.447 66.5039 213.416 52.7344C209.021 44.1406 206.214 37.9395 204.993 34.1309C203.821 30.2734 203.235 26.5381 203.235 22.9248C203.235 15.7471 204.92 10.1318 208.289 6.0791C211.707 2.02637 215.589 0 219.935 0C223.646 0 226.99 1.97754 229.969 5.93262C232.41 4.61426 234.778 2.97852 237.073 1.02539C237.854 0.341797 238.367 0 238.611 0C238.709 0 238.807 0.0488281 238.904 0.146484C239.002 0.341797 239.051 0.683594 239.051 1.17188V40.9424C239.051 41.4795 238.929 41.9189 238.685 42.2607C238.538 42.4561 238.343 42.5537 238.099 42.5537C237.806 42.5537 237.586 42.4316 237.439 42.1875C237.293 41.9434 237 40.1855 236.561 36.9141C234.559 21.7285 231.897 11.6699 228.577 6.73828C226.624 3.90625 224.402 2.49023 221.912 2.49023C220.057 2.49023 218.445 3.32031 217.078 4.98047C215.711 6.64063 215.027 9.08203 215.027 12.3047C215.027 18.1152 218.348 27.6611 224.988 40.9424L231.434 53.9062C235.877 62.8418 238.831 69.9463 240.296 75.2197C241.761 80.4443 242.493 85.1318 242.493 89.2822C242.493 96.5088 240.711 102.173 237.146 106.274C233.582 110.376 229.407 112.427 224.622 112.427C219.446 112.427 215.32 109.937 212.244 104.956Z" fill="white"/>
</g>
</svg>
