<svg width="1189" height="225" viewBox="0 0 1189 225" fill="none" xmlns="http://www.w3.org/2000/svg">
<g style="mix-blend-mode:difference" fill="#262629">
<path d="M73.5352 0.732422V87.5977C73.5352 88.2812 73.3398 88.8672 72.9492 89.3555C72.5586 89.7461 72.0703 89.9414 71.4844 89.9414C70.8984 89.9414 70.4102 89.7461 70.0195 89.3555C69.6289 88.8672 69.4336 88.2812 69.4336 87.5977V79.834C69.4336 67.5293 68.0176 55.1758 65.1855 42.7734C61.5723 26.5625 56.5918 15.0391 50.2441 8.20312C47.8027 5.56641 44.6289 4.24805 40.7227 4.24805C38.0859 4.24805 35.9863 5.27344 34.4238 7.32422C32.373 9.86328 31.3477 13.7695 31.3477 19.043V207.129C31.3477 211.816 32.2266 215.234 33.9844 217.383C35.8398 219.434 38.2812 220.459 41.3086 220.459C45.2148 220.459 49.2188 218.75 53.3203 215.332C57.4219 211.816 60.5469 207.129 62.6953 201.27C67.1875 189.355 69.4336 176.025 69.4336 161.279V137.109C69.4336 136.133 69.6289 135.4 70.0195 134.912C70.4102 134.424 70.8984 134.18 71.4844 134.18C71.9727 134.18 72.3633 134.375 72.6562 134.766C73.2422 135.449 73.5352 136.23 73.5352 137.109V161.279C73.5352 184.033 69.3359 201.123 60.9375 212.549C54.9805 220.752 47.4609 224.854 38.3789 224.854C31.6406 224.854 25.7812 222.754 20.8008 218.555C15.8203 214.258 11.7676 206.982 8.64258 196.729C2.88086 177.49 0 154.297 0 127.148V101.953C0 82.4219 1.66016 63.916 4.98047 46.4355C8.39844 28.8574 13.916 16.0645 21.5332 8.05664C26.709 2.68555 32.5684 0 39.1113 0C46.9238 0 53.9551 5.37109 60.2051 16.1133L71.9238 0.732422H73.5352ZM166.992 87.5977V141.65C166.992 172.803 162.061 195.557 152.197 209.912C145.361 219.873 136.816 224.854 126.562 224.854C119.629 224.854 113.232 222.363 107.373 217.383C101.514 212.402 96.9238 205.078 93.6035 195.41C88.2324 179.883 85.5469 162.646 85.5469 143.701V80.4199C85.5469 50.9277 90.4785 29.0527 100.342 14.7949C107.178 4.93164 115.625 0 125.684 0C130.566 0 135.059 1.12305 139.16 3.36914C143.262 5.51758 146.924 8.74023 150.146 13.0371C153.369 17.2363 156.25 22.8516 158.789 29.8828C161.426 36.8164 163.281 44.043 164.355 51.5625C166.113 64.3555 166.992 76.3672 166.992 87.5977ZM116.455 200.83C116.455 208.447 117.627 213.965 119.971 217.383C121.729 219.824 123.877 221.045 126.416 221.045C128.857 221.045 131.006 219.971 132.861 217.822C134.717 215.576 135.645 212.402 135.645 208.301V20.5078C135.645 15.2344 134.424 11.0352 131.982 7.91016C130.322 5.66406 128.223 4.54102 125.684 4.54102C123.438 4.54102 121.484 5.61523 119.824 7.76367C117.578 10.6934 116.455 14.9414 116.455 20.5078V200.83ZM184.717 218.701V6.00586H175.488C174.805 6.00586 174.268 5.85938 173.877 5.56641C173.584 5.17578 173.438 4.6875 173.438 4.10156C173.438 3.61328 173.584 3.22266 173.877 2.92969C174.268 2.53906 174.805 2.34375 175.488 2.34375H213.428C225.049 2.34375 234.521 4.98047 241.846 10.2539C249.17 15.5273 254.541 23.9746 257.959 35.5957C262.451 51.123 264.697 67.6758 264.697 85.2539V139.6C264.697 157.861 262.5 174.365 258.105 189.111C255.566 197.412 252.344 203.906 248.438 208.594C244.531 213.184 239.795 216.699 234.229 219.141C228.662 221.484 221.729 222.656 213.428 222.656H175.488C174.805 222.656 174.268 222.51 173.877 222.217C173.584 221.826 173.438 221.338 173.438 220.752C173.438 220.068 173.584 219.58 173.877 219.287C174.268 218.896 174.805 218.701 175.488 218.701H184.717ZM215.039 218.701H218.408C224.365 218.701 228.271 217.676 230.127 215.625C231.982 213.477 232.91 208.057 232.91 199.365V22.2656C232.91 15.918 231.982 11.6211 230.127 9.375C228.369 7.12891 225.635 6.00586 221.924 6.00586H215.039V218.701ZM282.715 6.00586H273.926C273.438 6.00586 273.047 5.85938 272.754 5.56641C272.461 5.17578 272.314 4.73633 272.314 4.24805C272.314 3.66211 272.461 3.22266 272.754 2.92969C273.047 2.53906 273.438 2.34375 273.926 2.34375H321.533C322.021 2.34375 322.412 2.53906 322.705 2.92969C323.096 3.22266 323.291 3.61328 323.291 4.10156C323.291 4.6875 323.096 5.17578 322.705 5.56641C322.412 5.85938 322.021 6.00586 321.533 6.00586H312.744V218.848H321.533C322.51 219.531 322.998 220.166 322.998 220.752C322.998 221.436 322.51 222.07 321.533 222.656H272.754C271.68 221.973 271.143 221.338 271.143 220.752C271.143 220.166 271.68 219.531 272.754 218.848H282.715V6.00586ZM402.393 20.2148C402.393 15.7227 401.807 12.5 400.635 10.5469C399.463 8.59375 397.656 7.22656 395.215 6.44531L388.916 5.85938C388.428 5.66406 388.184 5.12695 388.184 4.24805C388.184 3.4668 388.281 2.92969 388.477 2.63672C388.77 2.34375 389.404 2.19727 390.381 2.19727H416.309C416.699 2.19727 416.992 2.39258 417.188 2.7832C417.48 3.07617 417.627 3.4668 417.627 3.95508C417.627 4.44336 417.48 4.83398 417.188 5.12695C416.992 5.32227 416.162 5.71289 414.697 6.29883C411.67 7.4707 409.57 9.0332 408.398 10.9863C407.227 12.8418 406.494 16.3574 406.201 21.5332V222.656H383.496L347.021 21.9727V203.76C347.021 208.74 347.559 212.256 348.633 214.307C349.707 216.26 351.465 217.627 353.906 218.408L360.498 218.994C360.986 219.287 361.23 219.873 361.23 220.752C361.23 221.533 361.084 222.07 360.791 222.363C360.596 222.559 360.01 222.656 359.033 222.656H333.105C332.715 222.656 332.373 222.51 332.08 222.217C331.885 221.924 331.787 221.533 331.787 221.045C331.787 220.557 331.885 220.215 332.08 220.02C332.373 219.727 333.252 219.287 334.717 218.701C337.744 217.529 339.795 216.016 340.869 214.16C342.041 212.305 342.773 208.691 343.066 203.32V6.00586H334.863C334.375 6.00586 333.936 5.85938 333.545 5.56641C333.252 5.17578 333.105 4.6875 333.105 4.10156C333.105 3.61328 333.252 3.22266 333.545 2.92969C333.936 2.53906 334.375 2.34375 334.863 2.34375H372.803L402.393 163.33V20.2148ZM486.768 16.4062L496.436 2.7832C497.217 1.61133 497.998 1.02539 498.779 1.02539C499.072 1.02539 499.316 1.12305 499.512 1.31836C499.707 1.51367 499.805 1.85547 499.805 2.34375V89.7949C499.805 90.2832 499.609 90.6738 499.219 90.9668C498.926 91.2598 498.535 91.4062 498.047 91.4062C497.363 91.4062 496.924 91.2109 496.729 90.8203C496.533 90.5273 496.24 87.9395 495.85 83.0566C492.529 47.6074 487.549 24.3652 480.908 13.3301C477.1 7.17773 472.607 4.10156 467.432 4.10156C464.6 4.10156 462.207 5.37109 460.254 7.91016C458.301 10.4492 457.324 14.9902 457.324 21.5332V210.938C457.324 214.062 458.203 216.553 459.961 218.408C461.719 220.166 463.916 221.045 466.553 221.045C469.385 221.045 471.631 220.02 473.291 217.969C475.537 215.039 476.66 211.084 476.66 206.104V124.365H469.043C468.555 124.365 468.115 124.219 467.725 123.926C467.432 123.535 467.285 123.096 467.285 122.607C467.285 122.021 467.432 121.582 467.725 121.289C468.115 120.898 468.555 120.703 469.043 120.703H511.67C512.158 120.703 512.549 120.898 512.842 121.289C513.135 121.582 513.281 122.021 513.281 122.607C513.281 123.096 513.135 123.535 512.842 123.926C512.549 124.219 512.158 124.365 511.67 124.365H505.078V222.656C505.078 223.438 504.932 224.023 504.639 224.414C504.443 224.707 504.15 224.854 503.76 224.854C503.369 224.854 502.979 224.707 502.588 224.414C502.295 224.121 501.953 223.535 501.562 222.656L493.213 202.002C487.549 211.67 482.861 217.92 479.15 220.752C475.537 223.486 471.338 224.854 466.553 224.854C453.271 224.854 443.213 217.383 436.377 202.441C429.541 187.5 426.123 167.285 426.123 141.797V87.3047C426.123 61.2305 429.785 40.1855 437.109 24.1699C444.434 8.05664 453.955 0 465.674 0C474.17 0 481.201 5.46875 486.768 16.4062ZM527.49 218.848V6.00586H517.822C516.748 5.32227 516.211 4.6875 516.211 4.10156C516.211 3.61328 516.748 3.02734 517.822 2.34375H561.035C574.316 2.34375 585.156 6.93359 593.555 16.1133C602.051 25.293 606.299 38.1836 606.299 54.7852C606.299 64.9414 604.834 73.7305 601.904 81.1523C599.072 88.4766 594.629 94.6289 588.574 99.6094C584.766 102.734 579.004 105.713 571.289 108.545C579.297 111.475 585.205 114.453 589.014 117.48C595.068 122.461 599.658 128.516 602.783 135.645C605.908 142.676 607.471 151.367 607.471 161.719C607.471 175.098 605.176 186.963 600.586 197.314C597.461 204.541 592.334 210.596 585.205 215.479C578.076 220.264 569.531 222.656 559.57 222.656H517.822C516.748 221.973 516.211 221.338 516.211 220.752C516.211 220.166 516.748 219.531 517.822 218.848H527.49ZM557.666 6.00586V106.787H565.43C568.945 106.787 571.533 105.908 573.193 104.15C574.951 102.393 575.83 99.4629 575.83 95.3613V18.8965C575.83 13.916 574.951 10.5469 573.193 8.78906C571.436 6.93359 568.018 6.00586 562.939 6.00586H557.666ZM557.666 110.596V218.848H562.354C566.455 218.848 569.727 217.676 572.168 215.332C574.609 212.988 575.83 209.814 575.83 205.811V120.703C575.83 117.09 575.098 114.502 573.633 112.939C572.266 111.377 570.068 110.596 567.041 110.596H557.666ZM701.367 87.5977V141.65C701.367 172.803 696.436 195.557 686.572 209.912C679.736 219.873 671.191 224.854 660.938 224.854C654.004 224.854 647.607 222.363 641.748 217.383C635.889 212.402 631.299 205.078 627.979 195.41C622.607 179.883 619.922 162.646 619.922 143.701V80.4199C619.922 50.9277 624.854 29.0527 634.717 14.7949C641.553 4.93164 650 0 660.059 0C664.941 0 669.434 1.12305 673.535 3.36914C677.637 5.51758 681.299 8.74023 684.521 13.0371C687.744 17.2363 690.625 22.8516 693.164 29.8828C695.801 36.8164 697.656 44.043 698.73 51.5625C700.488 64.3555 701.367 76.3672 701.367 87.5977ZM650.83 200.83C650.83 208.447 652.002 213.965 654.346 217.383C656.104 219.824 658.252 221.045 660.791 221.045C663.232 221.045 665.381 219.971 667.236 217.822C669.092 215.576 670.02 212.402 670.02 208.301V20.5078C670.02 15.2344 668.799 11.0352 666.357 7.91016C664.697 5.66406 662.598 4.54102 660.059 4.54102C657.812 4.54102 655.859 5.61523 654.199 7.76367C651.953 10.6934 650.83 14.9414 650.83 20.5078V200.83ZM739.453 113.379L715.43 6.15234H709.57C709.082 6.15234 708.691 6.00586 708.398 5.71289C708.105 5.32227 707.959 4.83398 707.959 4.24805C707.959 3.56445 708.105 3.07617 708.398 2.7832C708.691 2.49023 709.082 2.34375 709.57 2.34375H757.178C758.252 3.02734 758.789 3.61328 758.789 4.10156C758.789 4.78516 758.252 5.46875 757.178 6.15234H745.459L768.164 106.201L785.156 28.2715C785.84 25.3418 786.182 22.6074 786.182 20.0684C786.182 16.3574 785.596 13.3789 784.424 11.1328C783.252 8.78906 781.641 7.22656 779.59 6.44531L774.756 5.85938C774.17 5.56641 773.877 5.0293 773.877 4.24805C773.877 3.56445 774.414 2.92969 775.488 2.34375H799.219C800.293 2.34375 801.025 2.44141 801.416 2.63672L801.855 3.36914C801.855 4.05273 801.27 4.78516 800.098 5.56641C795.215 8.39844 791.846 14.0137 789.99 22.4121L769.775 113.379V218.848H781.348C781.836 218.848 782.227 219.043 782.52 219.434C782.91 219.727 783.105 220.166 783.105 220.752C783.105 221.338 782.91 221.826 782.52 222.217C782.227 222.51 781.836 222.656 781.348 222.656H727.295C726.807 222.656 726.416 222.51 726.123 222.217C725.83 221.826 725.684 221.338 725.684 220.752C725.684 220.166 725.83 219.727 726.123 219.434C726.416 219.043 726.807 218.848 727.295 218.848H739.453V113.379ZM815.479 218.848V6.00586H805.811C804.736 5.32227 804.199 4.6875 804.199 4.10156C804.199 3.61328 804.736 3.02734 805.811 2.34375H849.023C862.305 2.34375 873.145 6.93359 881.543 16.1133C890.039 25.293 894.287 38.1836 894.287 54.7852C894.287 64.9414 892.822 73.7305 889.893 81.1523C887.061 88.4766 882.617 94.6289 876.562 99.6094C872.754 102.734 866.992 105.713 859.277 108.545C867.285 111.475 873.193 114.453 877.002 117.48C883.057 122.461 887.646 128.516 890.771 135.645C893.896 142.676 895.459 151.367 895.459 161.719C895.459 175.098 893.164 186.963 888.574 197.314C885.449 204.541 880.322 210.596 873.193 215.479C866.064 220.264 857.52 222.656 847.559 222.656H805.811C804.736 221.973 804.199 221.338 804.199 220.752C804.199 220.166 804.736 219.531 805.811 218.848H815.479ZM845.654 6.00586V106.787H853.418C856.934 106.787 859.521 105.908 861.182 104.15C862.939 102.393 863.818 99.4629 863.818 95.3613V18.8965C863.818 13.916 862.939 10.5469 861.182 8.78906C859.424 6.93359 856.006 6.00586 850.928 6.00586H845.654ZM845.654 110.596V218.848H850.342C854.443 218.848 857.715 217.676 860.156 215.332C862.598 212.988 863.818 209.814 863.818 205.811V120.703C863.818 117.09 863.086 114.502 861.621 112.939C860.254 111.377 858.057 110.596 855.029 110.596H845.654ZM913.477 6.00586H904.395C903.32 5.32227 902.783 4.73633 902.783 4.24805C902.783 3.66211 903.32 3.02734 904.395 2.34375H953.174C953.662 2.34375 954.053 2.53906 954.346 2.92969C954.736 3.22266 954.932 3.61328 954.932 4.10156C954.932 4.6875 954.736 5.17578 954.346 5.56641C954.053 5.85938 953.662 6.00586 953.174 6.00586H943.506V218.848H949.658C954.053 218.848 957.91 217.627 961.23 215.186C964.551 212.646 967.773 207.471 970.898 199.658C975.488 188.135 978.809 175.586 980.859 162.012C983.008 148.34 984.131 139.6 984.229 135.791C984.326 134.424 984.521 133.545 984.814 133.154L985.986 132.715L987.158 133.154C987.549 133.545 987.744 133.984 987.744 134.473L986.572 222.656H904.395C903.906 222.656 903.467 222.51 903.076 222.217C902.783 221.826 902.637 221.338 902.637 220.752C902.637 220.166 902.783 219.727 903.076 219.434C903.467 219.043 903.906 218.848 904.395 218.848H913.477V6.00586ZM1031.69 5.41992H1047.95L1074.02 218.848H1080.62C1081.69 219.531 1082.23 220.166 1082.23 220.752C1082.23 221.338 1081.69 221.973 1080.62 222.656H1036.52C1036.04 222.656 1035.64 222.51 1035.35 222.217C1035.06 221.826 1034.91 221.338 1034.91 220.752C1034.91 220.166 1035.06 219.727 1035.35 219.434C1035.64 219.043 1036.04 218.848 1036.52 218.848H1043.55L1039.75 177.246H1013.23L1010.01 200.83C1009.91 202.1 1009.86 203.418 1009.86 204.785C1009.86 209.082 1010.64 212.354 1012.21 214.6C1013.87 216.748 1016.11 218.066 1018.95 218.555L1021.29 219.287C1021.68 219.678 1021.88 220.166 1021.88 220.752C1021.88 221.338 1021.68 221.826 1021.29 222.217C1021 222.51 1020.61 222.656 1020.12 222.656H995.068C994.58 222.656 994.141 222.51 993.75 222.217C993.457 221.826 993.311 221.338 993.311 220.752C993.311 220.166 993.457 219.678 993.75 219.287L995.508 218.701C998.34 218.311 1000.54 217.041 1002.1 214.893C1004.44 211.475 1006.1 205.811 1007.08 197.9L1031.69 5.41992ZM1028.03 60.0586L1013.67 173.438H1039.31L1028.03 60.0586ZM1098.78 218.848V6.00586H1089.11C1088.04 5.32227 1087.5 4.6875 1087.5 4.10156C1087.5 3.61328 1088.04 3.02734 1089.11 2.34375H1133.64C1134.72 3.02734 1135.25 3.61328 1135.25 4.10156C1135.25 4.6875 1134.72 5.32227 1133.64 6.00586H1128.96V106.201H1147.56V6.00586H1141.41C1140.33 5.32227 1139.79 4.6875 1139.79 4.10156C1139.79 3.51562 1140.33 2.92969 1141.41 2.34375H1186.67C1187.74 3.02734 1188.28 3.61328 1188.28 4.10156C1188.28 4.6875 1187.74 5.32227 1186.67 6.00586H1177.88V218.848H1186.67C1187.16 218.848 1187.6 219.043 1187.99 219.434C1188.38 219.727 1188.57 220.166 1188.57 220.752C1188.57 221.338 1188.38 221.826 1187.99 222.217C1187.6 222.51 1187.16 222.656 1186.67 222.656H1142.87C1142.38 222.656 1141.94 222.51 1141.55 222.217C1141.26 221.826 1141.11 221.338 1141.11 220.752C1141.11 220.166 1141.26 219.727 1141.55 219.434C1141.94 219.043 1142.38 218.848 1142.87 218.848H1147.56V109.717H1128.96V218.848H1134.67C1135.16 218.848 1135.55 219.043 1135.84 219.434C1136.23 219.727 1136.43 220.166 1136.43 220.752C1136.43 221.338 1136.23 221.826 1135.84 222.217C1135.55 222.51 1135.16 222.656 1134.67 222.656H1089.11C1088.04 221.973 1087.5 221.338 1087.5 220.752C1087.5 220.166 1088.04 219.531 1089.11 218.848H1098.78Z" fill="white"/>
</g>
</svg>
