<svg width="337" height="113" viewBox="0 0 337 113" fill="none" xmlns="http://www.w3.org/2000/svg">
<g style="mix-blend-mode:difference">
<path d="M36.7676 0.366211V43.7988C36.7676 44.1406 36.6699 44.4336 36.4746 44.6777C36.2793 44.873 36.0352 44.9707 35.7422 44.9707C35.4492 44.9707 35.2051 44.873 35.0098 44.6777C34.8145 44.4336 34.7168 44.1406 34.7168 43.7988V39.917C34.7168 33.7646 34.0088 27.5879 32.5928 21.3867C30.7861 13.2812 28.2959 7.51953 25.1221 4.10156C23.9014 2.7832 22.3145 2.12402 20.3613 2.12402C19.043 2.12402 17.9932 2.63672 17.2119 3.66211C16.1865 4.93164 15.6738 6.88477 15.6738 9.52148V103.564C15.6738 105.908 16.1133 107.617 16.9922 108.691C17.9199 109.717 19.1406 110.229 20.6543 110.229C22.6074 110.229 24.6094 109.375 26.6602 107.666C28.7109 105.908 30.2734 103.564 31.3477 100.635C33.5938 94.6777 34.7168 88.0127 34.7168 80.6396V68.5547C34.7168 68.0664 34.8145 67.7002 35.0098 67.4561C35.2051 67.2119 35.4492 67.0898 35.7422 67.0898C35.9863 67.0898 36.1816 67.1875 36.3281 67.3828C36.6211 67.7246 36.7676 68.1152 36.7676 68.5547V80.6396C36.7676 92.0166 34.668 100.562 30.4688 106.274C27.4902 110.376 23.7305 112.427 19.1895 112.427C15.8203 112.427 12.8906 111.377 10.4004 109.277C7.91016 107.129 5.88379 103.491 4.32129 98.3643C1.44043 88.7451 0 77.1484 0 63.5742V50.9766C0 41.2109 0.830078 31.958 2.49023 23.2178C4.19922 14.4287 6.95801 8.03223 10.7666 4.02832C13.3545 1.34277 16.2842 0 19.5557 0C23.4619 0 26.9775 2.68555 30.1025 8.05664L35.9619 0.366211H36.7676ZM86.4961 43.7988V70.8252C86.4961 86.4014 84.0303 97.7783 79.0986 104.956C75.6807 109.937 71.4082 112.427 66.2812 112.427C62.8145 112.427 59.6162 111.182 56.6865 108.691C53.7568 106.201 51.4619 102.539 49.8018 97.7051C47.1162 89.9414 45.7734 81.3232 45.7734 71.8506V40.21C45.7734 25.4639 48.2393 14.5264 53.1709 7.39746C56.5889 2.46582 60.8125 0 65.8418 0C68.2832 0 70.5293 0.561523 72.5801 1.68457C74.6309 2.75879 76.4619 4.37012 78.0732 6.51855C79.6846 8.61816 81.125 11.4258 82.3945 14.9414C83.7129 18.4082 84.6406 22.0215 85.1777 25.7812C86.0566 32.1777 86.4961 38.1836 86.4961 43.7988ZM61.2275 100.415C61.2275 104.224 61.8135 106.982 62.9854 108.691C63.8643 109.912 64.9385 110.522 66.208 110.522C67.4287 110.522 68.5029 109.985 69.4307 108.911C70.3584 107.788 70.8223 106.201 70.8223 104.15V10.2539C70.8223 7.61719 70.2119 5.51758 68.9912 3.95508C68.1611 2.83203 67.1113 2.27051 65.8418 2.27051C64.7188 2.27051 63.7422 2.80762 62.9121 3.88184C61.7891 5.34668 61.2275 7.4707 61.2275 10.2539V100.415ZM129.56 10.1074C129.56 7.86133 129.267 6.25 128.681 5.27344C128.095 4.29688 127.191 3.61328 125.971 3.22266L122.821 2.92969C122.577 2.83203 122.455 2.56348 122.455 2.12402C122.455 1.7334 122.504 1.46484 122.602 1.31836C122.748 1.17188 123.065 1.09863 123.554 1.09863H136.518C136.713 1.09863 136.859 1.19629 136.957 1.3916C137.104 1.53809 137.177 1.7334 137.177 1.97754C137.177 2.22168 137.104 2.41699 136.957 2.56348C136.859 2.66113 136.444 2.85645 135.712 3.14941C134.198 3.73535 133.148 4.5166 132.562 5.49316C131.977 6.4209 131.61 8.17871 131.464 10.7666V111.328H120.111L101.874 10.9863V101.88C101.874 104.37 102.143 106.128 102.68 107.153C103.217 108.13 104.096 108.813 105.316 109.204L108.612 109.497C108.856 109.644 108.979 109.937 108.979 110.376C108.979 110.767 108.905 111.035 108.759 111.182C108.661 111.279 108.368 111.328 107.88 111.328H94.916C94.7207 111.328 94.5498 111.255 94.4033 111.108C94.3057 110.962 94.2568 110.767 94.2568 110.522C94.2568 110.278 94.3057 110.107 94.4033 110.01C94.5498 109.863 94.9893 109.644 95.7217 109.351C97.2354 108.765 98.2607 108.008 98.7979 107.08C99.3838 106.152 99.75 104.346 99.8965 101.66V3.00293H95.7949C95.5508 3.00293 95.3311 2.92969 95.1357 2.7832C94.9893 2.58789 94.916 2.34375 94.916 2.05078C94.916 1.80664 94.9893 1.61133 95.1357 1.46484C95.3311 1.26953 95.5508 1.17188 95.7949 1.17188H114.765L129.56 81.665V10.1074ZM160.099 3.00293H158.561C157.486 3.00293 156.559 3.34473 155.777 4.02832C154.605 5.05371 153.458 7.32422 152.335 10.8398C150.528 16.4551 148.99 23.1934 147.721 31.0547C146.451 38.8672 145.816 43.8232 145.816 45.9229V47.6074C145.816 47.998 145.719 48.3154 145.523 48.5596C145.328 48.7549 145.108 48.8525 144.864 48.8525C144.571 48.8525 144.352 48.7549 144.205 48.5596C143.961 48.2666 143.839 47.9492 143.839 47.6074V1.17188H191.446V47.6074C191.446 47.9492 191.349 48.2422 191.153 48.4863C190.958 48.6816 190.714 48.7793 190.421 48.7793C190.177 48.7793 189.957 48.6816 189.762 48.4863C189.566 48.2422 189.469 47.9492 189.469 47.6074V44.751C189.469 41.9678 188.761 36.792 187.345 29.2236C185.978 21.6064 184.391 15.21 182.584 10.0342C181.412 6.71387 180.436 4.71191 179.654 4.02832C178.922 3.34473 178.214 3.00293 177.53 3.00293H175.187V109.424H180.899C181.437 109.766 181.705 110.083 181.705 110.376C181.705 110.669 181.437 110.986 180.899 111.328H153.727C153.482 111.328 153.287 111.255 153.141 111.108C152.994 110.913 152.921 110.669 152.921 110.376C152.921 110.083 152.994 109.863 153.141 109.717C153.287 109.521 153.482 109.424 153.727 109.424H160.099V3.00293ZM212.171 2.70996H220.301L233.338 109.424H236.634C237.171 109.766 237.439 110.083 237.439 110.376C237.439 110.669 237.171 110.986 236.634 111.328H214.588C214.344 111.328 214.148 111.255 214.002 111.108C213.855 110.913 213.782 110.669 213.782 110.376C213.782 110.083 213.855 109.863 214.002 109.717C214.148 109.521 214.344 109.424 214.588 109.424H218.104L216.199 88.623H202.942L201.331 100.415C201.282 101.05 201.258 101.709 201.258 102.393C201.258 104.541 201.648 106.177 202.43 107.3C203.26 108.374 204.383 109.033 205.799 109.277L206.971 109.644C207.166 109.839 207.264 110.083 207.264 110.376C207.264 110.669 207.166 110.913 206.971 111.108C206.824 111.255 206.629 111.328 206.385 111.328H193.86C193.616 111.328 193.396 111.255 193.201 111.108C193.055 110.913 192.981 110.669 192.981 110.376C192.981 110.083 193.055 109.839 193.201 109.644L194.08 109.351C195.496 109.155 196.595 108.521 197.376 107.446C198.548 105.737 199.378 102.905 199.866 98.9502L212.171 2.70996ZM210.34 30.0293L203.162 86.7188H215.979L210.34 30.0293ZM281.162 0.366211V43.7988C281.162 44.1406 281.064 44.4336 280.869 44.6777C280.674 44.873 280.43 44.9707 280.137 44.9707C279.844 44.9707 279.6 44.873 279.404 44.6777C279.209 44.4336 279.111 44.1406 279.111 43.7988V39.917C279.111 33.7646 278.403 27.5879 276.987 21.3867C275.181 13.2812 272.69 7.51953 269.517 4.10156C268.296 2.7832 266.709 2.12402 264.756 2.12402C263.438 2.12402 262.388 2.63672 261.606 3.66211C260.581 4.93164 260.068 6.88477 260.068 9.52148V103.564C260.068 105.908 260.508 107.617 261.387 108.691C262.314 109.717 263.535 110.229 265.049 110.229C267.002 110.229 269.004 109.375 271.055 107.666C273.105 105.908 274.668 103.564 275.742 100.635C277.988 94.6777 279.111 88.0127 279.111 80.6396V68.5547C279.111 68.0664 279.209 67.7002 279.404 67.4561C279.6 67.2119 279.844 67.0898 280.137 67.0898C280.381 67.0898 280.576 67.1875 280.723 67.3828C281.016 67.7246 281.162 68.1152 281.162 68.5547V80.6396C281.162 92.0166 279.062 100.562 274.863 106.274C271.885 110.376 268.125 112.427 263.584 112.427C260.215 112.427 257.285 111.377 254.795 109.277C252.305 107.129 250.278 103.491 248.716 98.3643C245.835 88.7451 244.395 77.1484 244.395 63.5742V50.9766C244.395 41.2109 245.225 31.958 246.885 23.2178C248.594 14.4287 251.353 8.03223 255.161 4.02832C257.749 1.34277 260.679 0 263.95 0C267.856 0 271.372 2.68555 274.497 8.05664L280.356 0.366211H281.162ZM305.036 3.00293H303.498C302.424 3.00293 301.496 3.34473 300.715 4.02832C299.543 5.05371 298.396 7.32422 297.272 10.8398C295.466 16.4551 293.928 23.1934 292.658 31.0547C291.389 38.8672 290.754 43.8232 290.754 45.9229V47.6074C290.754 47.998 290.656 48.3154 290.461 48.5596C290.266 48.7549 290.046 48.8525 289.802 48.8525C289.509 48.8525 289.289 48.7549 289.143 48.5596C288.898 48.2666 288.776 47.9492 288.776 47.6074V1.17188H336.384V47.6074C336.384 47.9492 336.286 48.2422 336.091 48.4863C335.896 48.6816 335.651 48.7793 335.358 48.7793C335.114 48.7793 334.895 48.6816 334.699 48.4863C334.504 48.2422 334.406 47.9492 334.406 47.6074V44.751C334.406 41.9678 333.698 36.792 332.282 29.2236C330.915 21.6064 329.328 15.21 327.521 10.0342C326.35 6.71387 325.373 4.71191 324.592 4.02832C323.859 3.34473 323.151 3.00293 322.468 3.00293H320.124V109.424H325.837C326.374 109.766 326.643 110.083 326.643 110.376C326.643 110.669 326.374 110.986 325.837 111.328H298.664C298.42 111.328 298.225 111.255 298.078 111.108C297.932 110.913 297.858 110.669 297.858 110.376C297.858 110.083 297.932 109.863 298.078 109.717C298.225 109.521 298.42 109.424 298.664 109.424H305.036V3.00293Z" fill="white"/>
</g>
</svg>
