<svg width="1728" height="706" viewBox="0 0 1728 706" fill="none" xmlns="http://www.w3.org/2000/svg">
<mask id="mask0_56_4" style="mask-type:alpha" maskUnits="userSpaceOnUse" x="0" y="0" width="1728" height="706">
<rect width="1728" height="706" fill="#D9D9D9"/>
</mask>
<g mask="url(#mask0_56_4)">
<g style="mix-blend-mode:difference">
<circle cx="863.538" cy="863.539" r="861.038" stroke="white" stroke-width="5"/>
<path d="M863.077 2.50073C1290.68 2.50099 1637.76 387.747 1637.76 863.539C1637.76 1339.33 1290.68 1724.58 863.077 1724.58C435.472 1724.58 88.3921 1339.33 88.3921 863.539C88.3921 387.746 435.472 2.50073 863.077 2.50073Z" stroke="white" stroke-width="5"/>
<path d="M863.538 2.50073C1243.2 2.50073 1551.87 387.451 1551.87 863.539C1551.87 1339.63 1243.2 1724.58 863.538 1724.58C483.875 1724.58 175.208 1339.63 175.208 863.539C175.208 387.451 483.875 2.50094 863.538 2.50073Z" stroke="white" stroke-width="5"/>
<path d="M863.076 2.50073C1028.96 2.50073 1179.39 98.5506 1288.46 254.359C1397.52 410.16 1465.05 625.53 1465.05 863.539C1465.05 1101.55 1397.52 1316.92 1288.46 1472.72C1179.39 1628.53 1028.96 1724.58 863.076 1724.58C697.194 1724.58 546.76 1628.53 437.694 1472.72C328.634 1316.92 261.1 1101.55 261.1 863.539C261.1 625.53 328.634 410.16 437.694 254.359C546.76 98.5506 697.194 2.50073 863.076 2.50073Z" stroke="white" stroke-width="5"/>
<path d="M863.538 2.50073C1005.39 2.50084 1134.24 98.3427 1227.76 254.212C1321.25 410.031 1379.16 625.455 1379.16 863.539C1379.16 1101.62 1321.25 1317.05 1227.76 1472.87C1134.24 1628.73 1005.39 1724.58 863.538 1724.58C721.686 1724.58 592.835 1628.74 499.314 1472.87C405.822 1317.05 347.915 1101.62 347.915 863.539C347.915 625.455 405.822 410.031 499.314 254.212C592.835 98.3426 721.686 2.50073 863.538 2.50073Z" stroke="white" stroke-width="5"/>
<path d="M863.076 2.50073C980.848 2.50073 1088.15 98.039 1166.15 254.043C1244.07 409.897 1292.35 625.383 1292.35 863.539C1292.35 1101.69 1244.07 1317.18 1166.15 1473.03C1088.15 1629.04 980.848 1724.58 863.076 1724.58C745.303 1724.58 638.007 1629.04 560.005 1473.03C482.078 1317.18 433.807 1101.69 433.807 863.539C433.807 625.383 482.078 409.897 560.005 254.043C638.007 98.0392 745.303 2.50096 863.076 2.50073Z" stroke="white" stroke-width="5"/>
<path d="M863.538 2.50073C910.321 2.50073 955.142 26.1939 996.173 69.5798C1037.21 112.971 1074.28 175.893 1105.46 253.853C1167.83 409.76 1206.45 625.316 1206.45 863.539C1206.45 1101.76 1167.83 1317.32 1105.46 1473.22C1074.28 1551.18 1037.21 1614.11 996.173 1657.5C955.142 1700.88 910.321 1724.58 863.538 1724.58C816.755 1724.58 771.933 1700.88 730.903 1657.5C689.868 1614.11 652.798 1551.18 621.614 1473.22C559.251 1317.32 520.623 1101.76 520.623 863.539C520.623 625.316 559.251 409.76 621.614 253.853C652.798 175.893 689.868 112.971 730.903 69.5798C771.933 26.1939 816.755 2.50078 863.538 2.50073Z" stroke="white" stroke-width="5"/>
<path d="M863.076 2.50073C897.633 2.50079 931.056 25.8567 961.875 69.3083C992.649 112.695 1020.46 175.639 1043.87 253.643C1090.66 409.621 1119.64 625.253 1119.64 863.539C1119.64 1101.82 1090.66 1317.46 1043.87 1473.43C1020.46 1551.44 992.649 1614.38 961.875 1657.77C931.056 1701.22 897.633 1724.58 863.076 1724.58C828.52 1724.58 795.096 1701.22 764.277 1657.77C733.503 1614.38 705.688 1551.44 682.286 1473.43C635.493 1317.46 606.515 1101.82 606.515 863.539C606.515 625.253 635.493 409.621 682.286 253.643C705.688 175.639 733.503 112.695 764.277 69.3083C795.096 25.8566 828.52 2.50073 863.076 2.50073Z" stroke="white" stroke-width="5"/>
<path d="M863.538 2.50073C874.552 2.50087 885.589 8.06986 896.557 19.2917C907.529 30.518 918.232 47.2095 928.503 68.9304C949.039 112.36 967.599 175.363 983.209 253.416C1014.42 409.48 1033.75 625.193 1033.75 863.539C1033.75 1101.88 1014.42 1317.6 983.209 1473.66C967.599 1551.71 949.039 1614.72 928.503 1658.15C918.233 1679.87 907.529 1696.56 896.557 1707.78C885.589 1719.01 874.552 1724.58 863.538 1724.58C852.525 1724.58 841.487 1719.01 830.519 1707.78C819.547 1696.56 808.843 1679.87 798.573 1658.15C778.037 1614.72 759.477 1551.71 743.867 1473.66C712.654 1317.6 693.33 1101.88 693.33 863.539C693.33 625.193 712.654 409.48 743.867 253.416C759.477 175.363 778.037 112.36 798.573 68.9304C808.843 47.2095 819.547 30.518 830.519 19.2917C841.487 8.06967 852.525 2.50073 863.538 2.50073Z" stroke="white" stroke-width="5"/>
<path d="M863.076 2.50073C865.148 2.50073 867.491 3.53975 870.124 6.21362C872.76 8.89124 875.481 13.0099 878.233 18.6423C883.733 29.8955 889.104 46.6485 894.256 68.4373C904.549 111.974 913.841 175.077 921.65 253.174C937.267 409.337 946.93 625.135 946.93 863.539C946.93 1101.94 937.267 1317.74 921.65 1473.9C913.841 1552 904.549 1615.1 894.256 1658.64C889.104 1680.43 883.733 1697.18 878.233 1708.44C875.481 1714.07 872.76 1718.19 870.124 1720.86C867.491 1723.54 865.148 1724.58 863.076 1724.58C861.004 1724.58 858.661 1723.54 856.028 1720.86C853.392 1718.19 850.671 1714.07 847.919 1708.44C842.419 1697.18 837.048 1680.43 831.896 1658.64C821.603 1615.1 812.312 1552 804.503 1473.9C788.886 1317.74 779.222 1101.94 779.222 863.539C779.222 625.135 788.886 409.337 804.503 253.174C812.312 175.077 821.603 111.974 831.896 68.4373C837.048 46.6485 842.419 29.8955 847.919 18.6423C850.671 13.01 853.392 8.89128 856.028 6.21362C858.661 3.53987 861.004 2.50083 863.076 2.50073Z" stroke="white" stroke-width="5"/>
<line x1="861.038" y1="1721.53" x2="861.038" y2="0.00012207" stroke="white" stroke-width="5"/>
</g>
<g style="mix-blend-mode:difference">
<circle cx="863.538" cy="863.538" r="861.038" transform="rotate(-90 863.538 863.538)" stroke="white" stroke-width="5"/>
<path d="M2.50049 864C2.50074 436.395 387.746 89.3159 863.539 89.3159C1339.33 89.316 1724.58 436.395 1724.58 864C1724.58 1291.6 1339.33 1638.68 863.539 1638.68C387.746 1638.68 2.50049 1291.6 2.50049 864Z" stroke="white" stroke-width="5"/>
<path d="M2.50049 863.539C2.50049 483.876 387.451 175.208 863.539 175.208C1339.63 175.208 1724.58 483.876 1724.58 863.539C1724.58 1243.2 1339.63 1551.87 863.539 1551.87C387.451 1551.87 2.50069 1243.2 2.50049 863.539Z" stroke="white" stroke-width="5"/>
<path d="M2.50049 864C2.50049 698.118 98.5503 547.684 254.359 438.618C410.16 329.558 625.529 262.023 863.539 262.023C1101.55 262.023 1316.92 329.558 1472.72 438.618C1628.53 547.684 1724.58 698.118 1724.58 864C1724.58 1029.88 1628.53 1180.32 1472.72 1289.38C1316.92 1398.44 1101.55 1465.98 863.539 1465.98C625.529 1465.98 410.16 1398.44 254.359 1289.38C98.5503 1180.32 2.50049 1029.88 2.50049 864Z" stroke="white" stroke-width="5"/>
<path d="M2.50049 863.538C2.5006 721.685 98.3424 592.835 254.211 499.313C410.031 405.822 625.455 347.915 863.539 347.915C1101.62 347.915 1317.05 405.822 1472.87 499.313C1628.73 592.835 1724.58 721.685 1724.58 863.538C1724.58 1005.39 1628.73 1134.24 1472.87 1227.76C1317.05 1321.25 1101.62 1379.16 863.539 1379.16C625.454 1379.16 410.031 1321.25 254.211 1227.76C98.3423 1134.24 2.50049 1005.39 2.50049 863.538Z" stroke="white" stroke-width="5"/>
<path d="M2.50049 864C2.50049 746.228 98.0388 638.931 254.042 560.929C409.897 483.002 625.383 434.731 863.539 434.731C1101.69 434.731 1317.18 483.002 1473.03 560.929C1629.04 638.931 1724.58 746.228 1724.58 864C1724.58 981.773 1629.04 1089.07 1473.03 1167.07C1317.18 1245 1101.69 1293.27 863.539 1293.27C625.383 1293.27 409.897 1245 254.042 1167.07C98.039 1089.07 2.50072 981.773 2.50049 864Z" stroke="white" stroke-width="5"/>
<path d="M2.50049 863.538C2.50049 816.755 26.1936 771.934 69.5796 730.904C112.971 689.868 175.893 652.798 253.853 621.614C409.76 559.251 625.316 520.623 863.539 520.623C1101.76 520.623 1317.32 559.251 1473.22 621.614C1551.18 652.798 1614.11 689.868 1657.5 730.904C1700.88 771.934 1724.58 816.755 1724.58 863.538C1724.58 910.321 1700.88 955.143 1657.5 996.173C1614.11 1037.21 1551.18 1074.28 1473.22 1105.46C1317.32 1167.82 1101.76 1206.45 863.539 1206.45C625.316 1206.45 409.76 1167.83 253.853 1105.46C175.893 1074.28 112.971 1037.21 69.5796 996.173C26.1937 955.143 2.50054 910.321 2.50049 863.538Z" stroke="white" stroke-width="5"/>
<path d="M2.50049 864C2.50054 829.443 25.8564 796.02 69.3081 765.201C112.695 734.428 175.638 706.612 253.643 683.211C409.621 636.417 625.252 607.438 863.539 607.438C1101.82 607.438 1317.46 636.417 1473.43 683.211C1551.44 706.612 1614.38 734.428 1657.77 765.201C1701.22 796.02 1724.58 829.443 1724.58 864C1724.58 898.557 1701.22 931.98 1657.77 962.8C1614.38 993.573 1551.44 1021.39 1473.43 1044.79C1317.46 1091.58 1101.82 1120.56 863.539 1120.56C625.252 1120.56 409.621 1091.58 253.643 1044.79C175.638 1021.39 112.695 993.573 69.3081 962.8C25.8564 931.98 2.50049 898.557 2.50049 864Z" stroke="white" stroke-width="5"/>
<path d="M2.50049 863.538C2.50062 852.524 8.06962 841.487 19.2915 830.519C30.5177 819.547 47.2093 808.844 68.9302 798.573C112.359 778.037 175.363 759.478 253.416 743.867C409.48 712.654 625.193 693.331 863.539 693.331C1101.88 693.331 1317.6 712.654 1473.66 743.867C1551.71 759.478 1614.72 778.037 1658.15 798.573C1679.87 808.844 1696.56 819.547 1707.78 830.519C1719.01 841.487 1724.58 852.524 1724.58 863.538C1724.58 874.552 1719.01 885.589 1707.78 896.557C1696.56 907.529 1679.87 918.233 1658.15 928.504C1614.72 949.039 1551.71 967.599 1473.66 983.21C1317.6 1014.42 1101.88 1033.75 863.539 1033.75C625.193 1033.75 409.48 1014.42 253.416 983.21C175.363 967.599 112.359 949.039 68.9302 928.504C47.2093 918.233 30.5177 907.53 19.2915 896.557C8.06943 885.589 2.50049 874.552 2.50049 863.538Z" stroke="white" stroke-width="5"/>
</g>
<g style="mix-blend-mode:difference">
<circle cx="863.538" cy="863.538" r="861.038" transform="rotate(-90 863.538 863.538)" stroke="white" stroke-width="5"/>
</g>
</g>
</svg>
