<svg width="32" height="32" viewBox="0 0 32 32" fill="none" xmlns="http://www.w3.org/2000/svg">
<rect width="32" height="32" fill="#262629"/>
<rect x="10.225" y="20.1249" width="1.65" height="1.65" fill="#D9D9D9"/>
<rect x="11.875" y="18.475" width="1.65" height="1.65" fill="#D9D9D9"/>
<rect x="13.525" y="16.825" width="1.65" height="1.65" fill="#D9D9D9"/>
<rect x="15.175" y="15.1749" width="1.65" height="1.65" fill="#D9D9D9"/>
<rect x="16.825" y="13.525" width="1.65" height="1.65" fill="#D9D9D9"/>
<rect x="18.475" y="11.8749" width="1.65" height="1.65" fill="#D9D9D9"/>
<rect x="20.125" y="10.225" width="1.65" height="1.65" fill="#D9D9D9"/>
<rect x="8.57495" y="21.775" width="1.65" height="1.65" fill="#D9D9D9"/>
<rect x="6.92505" y="20.1249" width="1.65" height="1.65" fill="#D9D9D9"/>
<rect x="5.27502" y="18.475" width="1.65" height="1.65" fill="#D9D9D9"/>
<rect x="3.625" y="16.825" width="1.65" height="1.65" fill="#D9D9D9"/>
<rect x="1.97498" y="15.1749" width="1.65" height="1.65" fill="#D9D9D9"/>
<rect width="1.65" height="1.65" transform="matrix(1 0 0 -1 8.57495 10.225)" fill="#D9D9D9"/>
<rect width="1.65" height="1.65" transform="matrix(1 0 0 -1 6.92505 11.8749)" fill="#D9D9D9"/>
<rect width="1.65" height="1.65" transform="matrix(1 0 0 -1 5.27502 13.525)" fill="#D9D9D9"/>
<rect width="1.65" height="1.65" transform="matrix(1 0 0 -1 3.625 15.1749)" fill="#D9D9D9"/>
<rect width="1.65" height="1.65" transform="matrix(1 0 0 -1 1.97498 16.825)" fill="#D9D9D9"/>
<rect width="1.65" height="1.65" transform="matrix(-1 0 0 1 23.425 21.775)" fill="#D9D9D9"/>
<rect width="1.65" height="1.65" transform="matrix(-1 0 0 1 25.075 20.1249)" fill="#D9D9D9"/>
<rect width="1.65" height="1.65" transform="matrix(-1 0 0 1 26.725 18.475)" fill="#D9D9D9"/>
<rect width="1.65" height="1.65" transform="matrix(-1 0 0 1 28.375 16.825)" fill="#D9D9D9"/>
<rect width="1.65" height="1.65" transform="matrix(-1 0 0 1 30.025 15.1749)" fill="#D9D9D9"/>
<rect x="23.425" y="10.225" width="1.65" height="1.65" transform="rotate(180 23.425 10.225)" fill="#D9D9D9"/>
<rect x="25.075" y="11.8749" width="1.65" height="1.65" transform="rotate(180 25.075 11.8749)" fill="#D9D9D9"/>
<rect x="26.725" y="13.525" width="1.65" height="1.65" transform="rotate(180 26.725 13.525)" fill="#D9D9D9"/>
<rect x="28.375" y="15.1749" width="1.65" height="1.65" transform="rotate(180 28.375 15.1749)" fill="#D9D9D9"/>
<rect x="30.025" y="16.825" width="1.65" height="1.65" transform="rotate(180 30.025 16.825)" fill="#D9D9D9"/>
<path d="M30.0259 16.8251H30.0249V16.9306L23.5308 23.4247H23.4243L30.0249 16.8242L30.0259 16.8251ZM21.7749 21.7753V21.6689L28.269 15.1747H28.3755L21.7749 21.7753Z" fill="#6A6A6A"/>
<path d="M10.2246 10.2244V10.2253V10.3308L3.73047 16.825H3.625L10.2246 10.2244ZM1.97461 15.1755L1.97559 15.1746V15.0681L8.46973 8.57495H8.5752L1.97461 15.1755Z" fill="#6A6A6A"/>
<path d="M23.4259 10.2253H23.4249V10.3308L10.3312 23.4246H10.2247L23.4249 10.2244L23.4259 10.2253ZM8.57532 21.7742V21.6687L21.6691 8.57495H21.7745L8.57532 21.7742Z" fill="#6A6A6A"/>
</svg>
