<svg width="353" height="113" viewBox="0 0 353 113" fill="none" xmlns="http://www.w3.org/2000/svg">
<g style="mix-blend-mode:difference">
<path d="M5.56641 3.00293H0.878906C0.634766 3.00293 0.415039 2.92969 0.219727 2.7832C0.0732422 2.58789 0 2.36816 0 2.12402C0 1.83105 0.0732422 1.61133 0.219727 1.46484C0.415039 1.26953 0.634766 1.17188 0.878906 1.17188H22.6318C26.0498 1.17188 29.3457 2.00195 32.5195 3.66211C34.7656 4.88281 36.8652 6.78711 38.8184 9.375C40.8203 11.9141 42.3096 14.4531 43.2861 16.9922C44.6045 20.459 45.2637 24.4629 45.2637 29.0039V36.6943C45.2637 42.1143 44.2627 46.8506 42.2607 50.9033C40.2588 54.9072 37.5488 58.0811 34.1309 60.4248C30.7617 62.7197 27.1973 63.8672 23.4375 63.8672H20.8008V109.424H25.1953C25.4395 109.424 25.6348 109.521 25.7812 109.717C25.9766 109.863 26.0742 110.083 26.0742 110.376C26.0742 110.669 25.9766 110.913 25.7812 111.108C25.6348 111.255 25.4395 111.328 25.1953 111.328H0.878906C0.634766 111.328 0.415039 111.255 0.219727 111.108C0.0732422 110.913 0 110.669 0 110.376C0 110.083 0.0732422 109.863 0.219727 109.717C0.415039 109.521 0.634766 109.424 0.878906 109.424H5.56641V3.00293ZM20.8008 3.00293V62.0361H23.5107C25.3662 62.0361 26.8799 61.4502 28.0518 60.2783C29.2236 59.0576 29.8096 57.373 29.8096 55.2246V10.3271C29.8096 7.83691 29.248 5.9082 28.125 4.54102C27.2949 3.51562 26.0986 3.00293 24.5361 3.00293H20.8008ZM94.9189 43.7988V70.8252C94.9189 86.4014 92.4531 97.7783 87.5215 104.956C84.1035 109.937 79.8311 112.427 74.7041 112.427C71.2373 112.427 68.0391 111.182 65.1094 108.691C62.1797 106.201 59.8848 102.539 58.2246 97.7051C55.5391 89.9414 54.1963 81.3232 54.1963 71.8506V40.21C54.1963 25.4639 56.6621 14.5264 61.5938 7.39746C65.0117 2.46582 69.2354 0 74.2646 0C76.7061 0 78.9521 0.561523 81.0029 1.68457C83.0537 2.75879 84.8848 4.37012 86.4961 6.51855C88.1074 8.61816 89.5479 11.4258 90.8174 14.9414C92.1357 18.4082 93.0635 22.0215 93.6006 25.7812C94.4795 32.1777 94.9189 38.1836 94.9189 43.7988ZM69.6504 100.415C69.6504 104.224 70.2363 106.982 71.4082 108.691C72.2871 109.912 73.3613 110.522 74.6309 110.522C75.8516 110.522 76.9258 109.985 77.8535 108.911C78.7812 107.788 79.2451 106.201 79.2451 104.15V10.2539C79.2451 7.61719 78.6348 5.51758 77.4141 3.95508C76.584 2.83203 75.5342 2.27051 74.2646 2.27051C73.1416 2.27051 72.165 2.80762 71.335 3.88184C70.2119 5.34668 69.6504 7.4707 69.6504 10.2539V100.415ZM112.567 104.956C110.907 106.128 109.198 107.593 107.44 109.351C105.731 111.06 104.682 111.914 104.291 111.914C104.145 111.914 104.022 111.841 103.925 111.694C103.827 111.548 103.778 111.23 103.778 110.742V64.7461C103.778 64.5508 103.827 64.4043 103.925 64.3066C104.071 64.1602 104.218 64.0869 104.364 64.0869C104.608 64.0869 104.828 64.2334 105.023 64.5264C105.365 64.9658 105.536 65.4541 105.536 65.9912V69.1406C105.536 75.2441 106.488 82.2021 108.393 90.0146C110.297 97.8271 112.787 103.394 115.863 106.714C117.377 108.374 119.135 109.204 121.137 109.204C123.432 109.204 125.434 108.13 127.143 105.981C128.852 103.784 129.706 100.488 129.706 96.0938C129.706 91.8945 128.925 87.4512 127.362 82.7637C125.312 76.5137 120.771 66.5039 113.739 52.7344C109.345 44.1406 106.537 37.9395 105.316 34.1309C104.145 30.2734 103.559 26.5381 103.559 22.9248C103.559 15.7471 105.243 10.1318 108.612 6.0791C112.03 2.02637 115.912 0 120.258 0C123.969 0 127.313 1.97754 130.292 5.93262C132.733 4.61426 135.102 2.97852 137.396 1.02539C138.178 0.341797 138.69 0 138.935 0C139.032 0 139.13 0.0488281 139.228 0.146484C139.325 0.341797 139.374 0.683594 139.374 1.17188V40.9424C139.374 41.4795 139.252 41.9189 139.008 42.2607C138.861 42.4561 138.666 42.5537 138.422 42.5537C138.129 42.5537 137.909 42.4316 137.763 42.1875C137.616 41.9434 137.323 40.1855 136.884 36.9141C134.882 21.7285 132.221 11.6699 128.9 6.73828C126.947 3.90625 124.726 2.49023 122.235 2.49023C120.38 2.49023 118.769 3.32031 117.401 4.98047C116.034 6.64063 115.351 9.08203 115.351 12.3047C115.351 18.1152 118.671 27.6611 125.312 40.9424L131.757 53.9062C136.2 62.8418 139.154 69.9463 140.619 75.2197C142.084 80.4443 142.816 85.1318 142.816 89.2822C142.816 96.5088 141.034 102.173 137.47 106.274C133.905 110.376 129.73 112.427 124.945 112.427C119.77 112.427 115.644 109.937 112.567 104.956ZM165.885 3.00293H164.347C163.272 3.00293 162.345 3.34473 161.563 4.02832C160.392 5.05371 159.244 7.32422 158.121 10.8398C156.314 16.4551 154.776 23.1934 153.507 31.0547C152.237 38.8672 151.603 43.8232 151.603 45.9229V47.6074C151.603 47.998 151.505 48.3154 151.31 48.5596C151.114 48.7549 150.895 48.8525 150.65 48.8525C150.357 48.8525 150.138 48.7549 149.991 48.5596C149.747 48.2666 149.625 47.9492 149.625 47.6074V1.17188H197.232V47.6074C197.232 47.9492 197.135 48.2422 196.939 48.4863C196.744 48.6816 196.5 48.7793 196.207 48.7793C195.963 48.7793 195.743 48.6816 195.548 48.4863C195.353 48.2422 195.255 47.9492 195.255 47.6074V44.751C195.255 41.9678 194.547 36.792 193.131 29.2236C191.764 21.6064 190.177 15.21 188.37 10.0342C187.198 6.71387 186.222 4.71191 185.44 4.02832C184.708 3.34473 184 3.00293 183.316 3.00293H180.973V109.424H186.686C187.223 109.766 187.491 110.083 187.491 110.376C187.491 110.669 187.223 110.986 186.686 111.328H159.513C159.269 111.328 159.073 111.255 158.927 111.108C158.78 110.913 158.707 110.669 158.707 110.376C158.707 110.083 158.78 109.863 158.927 109.717C159.073 109.521 159.269 109.424 159.513 109.424H165.885V3.00293ZM208.802 3.00293H204.114C203.626 2.66113 203.382 2.36816 203.382 2.12402C203.382 1.78223 203.626 1.46484 204.114 1.17188H245.716V41.9678C245.423 42.4561 245.13 42.7002 244.837 42.7002C244.544 42.7002 244.324 42.627 244.178 42.4805C244.08 42.2852 244.007 41.5771 243.958 40.3564C243.616 32.251 242.347 24.707 240.149 17.7246C237.952 10.7422 235.828 6.32324 233.777 4.46777C232.703 3.49121 230.896 3.00293 228.357 3.00293H223.816V54.5654C226.6 54.2725 228.87 52.8076 230.628 50.1709C232.972 46.6064 234.144 41.1377 234.144 33.7646V28.0518C234.144 27.8076 234.217 27.6123 234.363 27.4658C234.559 27.2705 234.778 27.1729 235.022 27.1729C235.267 27.1729 235.462 27.2705 235.608 27.4658C235.755 27.6123 235.828 27.8076 235.828 28.0518V82.4707C235.828 82.7148 235.755 82.9346 235.608 83.1299C235.462 83.2764 235.267 83.3496 235.022 83.3496C234.778 83.3496 234.559 83.2764 234.363 83.1299C234.217 82.9346 234.144 82.7148 234.144 82.4707V77.1973C234.144 69.9707 232.825 64.2334 230.188 59.9854C228.626 57.5439 226.99 56.3232 225.281 56.3232C224.842 56.3232 224.5 56.4697 224.256 56.7627C223.963 57.1045 223.816 57.6416 223.816 58.374V109.424H226.16C228.162 109.424 230.14 108.691 232.093 107.227C234.046 105.713 235.877 103.125 237.586 99.4629C239.295 95.752 240.613 91.7236 241.541 87.3779C243.055 80.3467 243.812 74.8535 243.812 70.8984V66.0645C244.153 65.5273 244.471 65.2588 244.764 65.2588C245.057 65.2588 245.276 65.332 245.423 65.4785C245.618 65.625 245.716 65.8203 245.716 66.0645V111.328H204.114C203.772 111.328 203.504 111.23 203.309 111.035C203.113 110.84 203.016 110.62 203.016 110.376C203.016 110.083 203.113 109.863 203.309 109.717C203.504 109.521 203.772 109.424 204.114 109.424H208.802V3.00293ZM257.358 3.00293H253.037C252.5 2.70996 252.231 2.39258 252.231 2.05078C252.231 1.75781 252.5 1.46484 253.037 1.17188H276.108C281.821 1.17188 286.777 3.61328 290.977 8.49609C295.176 13.3301 297.275 19.9463 297.275 28.3447C297.275 33.1787 296.47 37.4756 294.858 41.2354C293.247 44.9951 290.854 48.0957 287.681 50.5371C285.776 52.002 282.822 53.418 278.818 54.7852C283.311 56.1035 286.436 57.373 288.193 58.5938C291.172 60.6445 293.369 63.1104 294.785 65.9912C296.25 68.8721 296.982 72.6074 296.982 77.1973V104.004C296.982 105.225 297.178 106.079 297.568 106.567C297.959 107.056 298.472 107.3 299.106 107.3C300.083 107.3 300.962 106.689 301.743 105.469C303.013 103.516 303.818 100 304.16 94.9219C304.209 94.043 304.331 93.457 304.526 93.1641C304.771 92.8711 305.015 92.7246 305.259 92.7246C305.552 92.7246 305.796 92.8955 305.991 93.2373C306.235 93.6279 306.357 94.3604 306.357 95.4346C306.357 100.854 305.039 105.054 302.402 108.032C299.814 110.962 296.543 112.427 292.588 112.427C289.072 112.427 286.411 111.523 284.604 109.717C282.798 107.91 281.895 105.347 281.895 102.026V63.2812C281.895 59.9609 281.064 57.7393 279.404 56.6162C278.428 55.9814 276.133 55.6641 272.52 55.6641V109.424H276.108C276.499 109.424 276.792 109.521 276.987 109.717C277.231 109.912 277.354 110.132 277.354 110.376C277.354 110.62 277.231 110.84 276.987 111.035C276.792 111.23 276.499 111.328 276.108 111.328H253.037C252.744 111.328 252.5 111.255 252.305 111.108C252.109 110.913 252.012 110.669 252.012 110.376C252.012 110.083 252.109 109.863 252.305 109.717C252.5 109.521 252.744 109.424 253.037 109.424H257.358V3.00293ZM272.52 3.00293V53.6865H276.108C277.817 53.6865 279.209 53.1006 280.283 51.9287C281.357 50.7568 281.895 49.0479 281.895 46.8018V8.78906C281.895 6.5918 281.504 5.07812 280.723 4.24805C279.941 3.41797 278.403 3.00293 276.108 3.00293H272.52ZM322.321 104.956C320.661 106.128 318.952 107.593 317.194 109.351C315.485 111.06 314.436 111.914 314.045 111.914C313.898 111.914 313.776 111.841 313.679 111.694C313.581 111.548 313.532 111.23 313.532 110.742V64.7461C313.532 64.5508 313.581 64.4043 313.679 64.3066C313.825 64.1602 313.972 64.0869 314.118 64.0869C314.362 64.0869 314.582 64.2334 314.777 64.5264C315.119 64.9658 315.29 65.4541 315.29 65.9912V69.1406C315.29 75.2441 316.242 82.2021 318.146 90.0146C320.051 97.8271 322.541 103.394 325.617 106.714C327.131 108.374 328.889 109.204 330.891 109.204C333.186 109.204 335.188 108.13 336.896 105.981C338.605 103.784 339.46 100.488 339.46 96.0938C339.46 91.8945 338.679 87.4512 337.116 82.7637C335.065 76.5137 330.524 66.5039 323.493 52.7344C319.099 44.1406 316.291 37.9395 315.07 34.1309C313.898 30.2734 313.312 26.5381 313.312 22.9248C313.312 15.7471 314.997 10.1318 318.366 6.0791C321.784 2.02637 325.666 0 330.012 0C333.723 0 337.067 1.97754 340.046 5.93262C342.487 4.61426 344.855 2.97852 347.15 1.02539C347.932 0.341797 348.444 0 348.688 0C348.786 0 348.884 0.0488281 348.981 0.146484C349.079 0.341797 349.128 0.683594 349.128 1.17188V40.9424C349.128 41.4795 349.006 41.9189 348.762 42.2607C348.615 42.4561 348.42 42.5537 348.176 42.5537C347.883 42.5537 347.663 42.4316 347.517 42.1875C347.37 41.9434 347.077 40.1855 346.638 36.9141C344.636 21.7285 341.975 11.6699 338.654 6.73828C336.701 3.90625 334.479 2.49023 331.989 2.49023C330.134 2.49023 328.522 3.32031 327.155 4.98047C325.788 6.64063 325.104 9.08203 325.104 12.3047C325.104 18.1152 328.425 27.6611 335.065 40.9424L341.511 53.9062C345.954 62.8418 348.908 69.9463 350.373 75.2197C351.838 80.4443 352.57 85.1318 352.57 89.2822C352.57 96.5088 350.788 102.173 347.224 106.274C343.659 110.376 339.484 112.427 334.699 112.427C329.523 112.427 325.397 109.937 322.321 104.956Z" fill="white"/>
</g>
</svg>
