<svg width="400" height="113" viewBox="0 0 400 113" fill="none" xmlns="http://www.w3.org/2000/svg">
<g style="mix-blend-mode:difference">
<path d="M5.56641 3.00293H0.878906C0.634766 3.00293 0.415039 2.92969 0.219727 2.7832C0.0732422 2.58789 0 2.36816 0 2.12402C0 1.83105 0.0732422 1.61133 0.219727 1.46484C0.415039 1.26953 0.634766 1.17188 0.878906 1.17188H22.6318C26.0498 1.17188 29.3457 2.00195 32.5195 3.66211C34.7656 4.88281 36.8652 6.78711 38.8184 9.375C40.8203 11.9141 42.3096 14.4531 43.2861 16.9922C44.6045 20.459 45.2637 24.4629 45.2637 29.0039V36.6943C45.2637 42.1143 44.2627 46.8506 42.2607 50.9033C40.2588 54.9072 37.5488 58.0811 34.1309 60.4248C30.7617 62.7197 27.1973 63.8672 23.4375 63.8672H20.8008V109.424H25.1953C25.4395 109.424 25.6348 109.521 25.7812 109.717C25.9766 109.863 26.0742 110.083 26.0742 110.376C26.0742 110.669 25.9766 110.913 25.7812 111.108C25.6348 111.255 25.4395 111.328 25.1953 111.328H0.878906C0.634766 111.328 0.415039 111.255 0.219727 111.108C0.0732422 110.913 0 110.669 0 110.376C0 110.083 0.0732422 109.863 0.219727 109.717C0.415039 109.521 0.634766 109.424 0.878906 109.424H5.56641V3.00293ZM20.8008 3.00293V62.0361H23.5107C25.3662 62.0361 26.8799 61.4502 28.0518 60.2783C29.2236 59.0576 29.8096 57.373 29.8096 55.2246V10.3271C29.8096 7.83691 29.248 5.9082 28.125 4.54102C27.2949 3.51562 26.0986 3.00293 24.5361 3.00293H20.8008ZM57.126 3.00293H52.8047C52.2676 2.70996 51.999 2.39258 51.999 2.05078C51.999 1.75781 52.2676 1.46484 52.8047 1.17188H75.876C81.5889 1.17188 86.5449 3.61328 90.7441 8.49609C94.9434 13.3301 97.043 19.9463 97.043 28.3447C97.043 33.1787 96.2373 37.4756 94.626 41.2354C93.0146 44.9951 90.6221 48.0957 87.4482 50.5371C85.5439 52.002 82.5898 53.418 78.5859 54.7852C83.0781 56.1035 86.2031 57.373 87.9609 58.5938C90.9395 60.6445 93.1367 63.1104 94.5527 65.9912C96.0176 68.8721 96.75 72.6074 96.75 77.1973V104.004C96.75 105.225 96.9453 106.079 97.3359 106.567C97.7266 107.056 98.2393 107.3 98.874 107.3C99.8506 107.3 100.729 106.689 101.511 105.469C102.78 103.516 103.586 100 103.928 94.9219C103.977 94.043 104.099 93.457 104.294 93.1641C104.538 92.8711 104.782 92.7246 105.026 92.7246C105.319 92.7246 105.563 92.8955 105.759 93.2373C106.003 93.6279 106.125 94.3604 106.125 95.4346C106.125 100.854 104.807 105.054 102.17 108.032C99.582 110.962 96.3105 112.427 92.3555 112.427C88.8398 112.427 86.1787 111.523 84.3721 109.717C82.5654 107.91 81.6621 105.347 81.6621 102.026V63.2812C81.6621 59.9609 80.832 57.7393 79.1719 56.6162C78.1953 55.9814 75.9004 55.6641 72.2871 55.6641V109.424H75.876C76.2666 109.424 76.5596 109.521 76.7549 109.717C76.999 109.912 77.1211 110.132 77.1211 110.376C77.1211 110.62 76.999 110.84 76.7549 111.035C76.5596 111.23 76.2666 111.328 75.876 111.328H52.8047C52.5117 111.328 52.2676 111.255 52.0723 111.108C51.877 110.913 51.7793 110.669 51.7793 110.376C51.7793 110.083 51.877 109.863 52.0723 109.717C52.2676 109.521 52.5117 109.424 52.8047 109.424H57.126V3.00293ZM72.2871 3.00293V53.6865H75.876C77.585 53.6865 78.9766 53.1006 80.0508 51.9287C81.125 50.7568 81.6621 49.0479 81.6621 46.8018V8.78906C81.6621 6.5918 81.2715 5.07812 80.4902 4.24805C79.709 3.41797 78.1709 3.00293 75.876 3.00293H72.2871ZM154.462 43.7988V70.8252C154.462 86.4014 151.996 97.7783 147.064 104.956C143.646 109.937 139.374 112.427 134.247 112.427C130.78 112.427 127.582 111.182 124.652 108.691C121.723 106.201 119.428 102.539 117.768 97.7051C115.082 89.9414 113.739 81.3232 113.739 71.8506V40.21C113.739 25.4639 116.205 14.5264 121.137 7.39746C124.555 2.46582 128.778 0 133.808 0C136.249 0 138.495 0.561523 140.546 1.68457C142.597 2.75879 144.428 4.37012 146.039 6.51855C147.65 8.61816 149.091 11.4258 150.36 14.9414C151.679 18.4082 152.606 22.0215 153.144 25.7812C154.022 32.1777 154.462 38.1836 154.462 43.7988ZM129.193 100.415C129.193 104.224 129.779 106.982 130.951 108.691C131.83 109.912 132.904 110.522 134.174 110.522C135.395 110.522 136.469 109.985 137.396 108.911C138.324 107.788 138.788 106.201 138.788 104.15V10.2539C138.788 7.61719 138.178 5.51758 136.957 3.95508C136.127 2.83203 135.077 2.27051 133.808 2.27051C132.685 2.27051 131.708 2.80762 130.878 3.88184C129.755 5.34668 129.193 7.4707 129.193 10.2539V100.415ZM183.463 3.00293H178.629C178.385 3.00293 178.189 2.92969 178.043 2.7832C177.896 2.58789 177.823 2.36816 177.823 2.12402C177.823 1.83105 178.092 1.51367 178.629 1.17188H202.652C202.896 1.17188 203.092 1.26953 203.238 1.46484C203.434 1.61133 203.531 1.80664 203.531 2.05078C203.531 2.34375 203.434 2.58789 203.238 2.7832C203.092 2.92969 202.896 3.00293 202.652 3.00293H198.697V92.9443C198.697 98.7061 196.891 103.394 193.277 107.007C189.713 110.62 185.099 112.427 179.435 112.427C174.405 112.427 170.304 110.791 167.13 107.52C163.956 104.199 162.369 99.707 162.369 94.043C162.369 89.209 163.199 85.7178 164.859 83.5693C166.568 81.4209 168.521 80.3467 170.719 80.3467C172.525 80.3467 174.112 81.1768 175.479 82.8369C176.847 84.4971 177.53 86.8896 177.53 90.0146C177.53 92.9932 176.871 95.2637 175.553 96.8262C174.283 98.3398 172.77 99.0967 171.012 99.0967C170.328 99.0967 169.498 98.9502 168.521 98.6572C167.594 98.3643 166.886 98.2178 166.397 98.2178C166.056 98.2178 165.787 98.3398 165.592 98.584C165.299 98.9258 165.152 99.3896 165.152 99.9756C165.152 102.368 166.324 104.712 168.668 107.007C171.012 109.253 173.453 110.376 175.992 110.376C178.092 110.376 179.752 109.619 180.973 108.105C182.633 106.006 183.463 103.101 183.463 99.3896V3.00293ZM215.54 3.00293H210.853C210.364 2.66113 210.12 2.36816 210.12 2.12402C210.12 1.78223 210.364 1.46484 210.853 1.17188H252.454V41.9678C252.161 42.4561 251.868 42.7002 251.575 42.7002C251.282 42.7002 251.062 42.627 250.916 42.4805C250.818 42.2852 250.745 41.5771 250.696 40.3564C250.354 32.251 249.085 24.707 246.888 17.7246C244.69 10.7422 242.566 6.32324 240.516 4.46777C239.441 3.49121 237.635 3.00293 235.096 3.00293H230.555V54.5654C233.338 54.2725 235.608 52.8076 237.366 50.1709C239.71 46.6064 240.882 41.1377 240.882 33.7646V28.0518C240.882 27.8076 240.955 27.6123 241.102 27.4658C241.297 27.2705 241.517 27.1729 241.761 27.1729C242.005 27.1729 242.2 27.2705 242.347 27.4658C242.493 27.6123 242.566 27.8076 242.566 28.0518V82.4707C242.566 82.7148 242.493 82.9346 242.347 83.1299C242.2 83.2764 242.005 83.3496 241.761 83.3496C241.517 83.3496 241.297 83.2764 241.102 83.1299C240.955 82.9346 240.882 82.7148 240.882 82.4707V77.1973C240.882 69.9707 239.563 64.2334 236.927 59.9854C235.364 57.5439 233.729 56.3232 232.02 56.3232C231.58 56.3232 231.238 56.4697 230.994 56.7627C230.701 57.1045 230.555 57.6416 230.555 58.374V109.424H232.898C234.9 109.424 236.878 108.691 238.831 107.227C240.784 105.713 242.615 103.125 244.324 99.4629C246.033 95.752 247.352 91.7236 248.279 87.3779C249.793 80.3467 250.55 74.8535 250.55 70.8984V66.0645C250.892 65.5273 251.209 65.2588 251.502 65.2588C251.795 65.2588 252.015 65.332 252.161 65.4785C252.356 65.625 252.454 65.8203 252.454 66.0645V111.328H210.853C210.511 111.328 210.242 111.23 210.047 111.035C209.852 110.84 209.754 110.62 209.754 110.376C209.754 110.083 209.852 109.863 210.047 109.717C210.242 109.521 210.511 109.424 210.853 109.424H215.54V3.00293ZM297.349 0.366211V43.7988C297.349 44.1406 297.251 44.4336 297.056 44.6777C296.86 44.873 296.616 44.9707 296.323 44.9707C296.03 44.9707 295.786 44.873 295.591 44.6777C295.396 44.4336 295.298 44.1406 295.298 43.7988V39.917C295.298 33.7646 294.59 27.5879 293.174 21.3867C291.367 13.2812 288.877 7.51953 285.703 4.10156C284.482 2.7832 282.896 2.12402 280.942 2.12402C279.624 2.12402 278.574 2.63672 277.793 3.66211C276.768 4.93164 276.255 6.88477 276.255 9.52148V103.564C276.255 105.908 276.694 107.617 277.573 108.691C278.501 109.717 279.722 110.229 281.235 110.229C283.188 110.229 285.19 109.375 287.241 107.666C289.292 105.908 290.854 103.564 291.929 100.635C294.175 94.6777 295.298 88.0127 295.298 80.6396V68.5547C295.298 68.0664 295.396 67.7002 295.591 67.4561C295.786 67.2119 296.03 67.0898 296.323 67.0898C296.567 67.0898 296.763 67.1875 296.909 67.3828C297.202 67.7246 297.349 68.1152 297.349 68.5547V80.6396C297.349 92.0166 295.249 100.562 291.05 106.274C288.071 110.376 284.312 112.427 279.771 112.427C276.401 112.427 273.472 111.377 270.981 109.277C268.491 107.129 266.465 103.491 264.902 98.3643C262.021 88.7451 260.581 77.1484 260.581 63.5742V50.9766C260.581 41.2109 261.411 31.958 263.071 23.2178C264.78 14.4287 267.539 8.03223 271.348 4.02832C273.936 1.34277 276.865 0 280.137 0C284.043 0 287.559 2.68555 290.684 8.05664L296.543 0.366211H297.349ZM321.223 3.00293H319.685C318.61 3.00293 317.683 3.34473 316.901 4.02832C315.729 5.05371 314.582 7.32422 313.459 10.8398C311.652 16.4551 310.114 23.1934 308.845 31.0547C307.575 38.8672 306.94 43.8232 306.94 45.9229V47.6074C306.94 47.998 306.843 48.3154 306.647 48.5596C306.452 48.7549 306.232 48.8525 305.988 48.8525C305.695 48.8525 305.476 48.7549 305.329 48.5596C305.085 48.2666 304.963 47.9492 304.963 47.6074V1.17188H352.57V47.6074C352.57 47.9492 352.473 48.2422 352.277 48.4863C352.082 48.6816 351.838 48.7793 351.545 48.7793C351.301 48.7793 351.081 48.6816 350.886 48.4863C350.69 48.2422 350.593 47.9492 350.593 47.6074V44.751C350.593 41.9678 349.885 36.792 348.469 29.2236C347.102 21.6064 345.515 15.21 343.708 10.0342C342.536 6.71387 341.56 4.71191 340.778 4.02832C340.046 3.34473 339.338 3.00293 338.654 3.00293H336.311V109.424H342.023C342.561 109.766 342.829 110.083 342.829 110.376C342.829 110.669 342.561 110.986 342.023 111.328H314.851C314.606 111.328 314.411 111.255 314.265 111.108C314.118 110.913 314.045 110.669 314.045 110.376C314.045 110.083 314.118 109.863 314.265 109.717C314.411 109.521 314.606 109.424 314.851 109.424H321.223V3.00293ZM369.413 104.956C367.753 106.128 366.044 107.593 364.286 109.351C362.577 111.06 361.527 111.914 361.137 111.914C360.99 111.914 360.868 111.841 360.771 111.694C360.673 111.548 360.624 111.23 360.624 110.742V64.7461C360.624 64.5508 360.673 64.4043 360.771 64.3066C360.917 64.1602 361.063 64.0869 361.21 64.0869C361.454 64.0869 361.674 64.2334 361.869 64.5264C362.211 64.9658 362.382 65.4541 362.382 65.9912V69.1406C362.382 75.2441 363.334 82.2021 365.238 90.0146C367.143 97.8271 369.633 103.394 372.709 106.714C374.223 108.374 375.98 109.204 377.982 109.204C380.277 109.204 382.279 108.13 383.988 105.981C385.697 103.784 386.552 100.488 386.552 96.0938C386.552 91.8945 385.771 87.4512 384.208 82.7637C382.157 76.5137 377.616 66.5039 370.585 52.7344C366.19 44.1406 363.383 37.9395 362.162 34.1309C360.99 30.2734 360.404 26.5381 360.404 22.9248C360.404 15.7471 362.089 10.1318 365.458 6.0791C368.876 2.02637 372.758 0 377.104 0C380.814 0 384.159 1.97754 387.138 5.93262C389.579 4.61426 391.947 2.97852 394.242 1.02539C395.023 0.341797 395.536 0 395.78 0C395.878 0 395.976 0.0488281 396.073 0.146484C396.171 0.341797 396.22 0.683594 396.22 1.17188V40.9424C396.22 41.4795 396.098 41.9189 395.854 42.2607C395.707 42.4561 395.512 42.5537 395.268 42.5537C394.975 42.5537 394.755 42.4316 394.608 42.1875C394.462 41.9434 394.169 40.1855 393.729 36.9141C391.728 21.7285 389.066 11.6699 385.746 6.73828C383.793 3.90625 381.571 2.49023 379.081 2.49023C377.226 2.49023 375.614 3.32031 374.247 4.98047C372.88 6.64063 372.196 9.08203 372.196 12.3047C372.196 18.1152 375.517 27.6611 382.157 40.9424L388.603 53.9062C393.046 62.8418 396 69.9463 397.465 75.2197C398.93 80.4443 399.662 85.1318 399.662 89.2822C399.662 96.5088 397.88 102.173 394.315 106.274C390.751 110.376 386.576 112.427 381.791 112.427C376.615 112.427 372.489 109.937 369.413 104.956Z" fill="white"/>
</g>
</svg>
